<svg viewBox="0 0 1200 1211" xmlns="http://www.w3.org/2000/svg" style="fill-rule:evenodd;clip-rule:evenodd;stroke-linejoin:round;stroke-miterlimit:2;">
    <g transform="matrix(1,0,0,1,-4064.7,0)">
        <g id="Attempt-1-flat" transform="matrix(1.11111,0,0,1.12098,4064.7,0)">
            <rect x="0" y="0" width="1080" height="1080" style="fill:none;"/>
            <g transform="matrix(0.9,0,0,0.892074,-3658.23,0)">
                <path d="M4879.37,972.544C4874.94,981.454 4865.86,987.089 4855.91,987.089C4789.81,987.089 4541.4,987.089 4475.3,987.089C4465.35,987.089 4456.26,981.454 4451.84,972.544C4407.38,883.008 4170.5,405.939 4101.63,267.239C4097.59,259.119 4098.05,249.491 4102.82,241.786C4107.6,234.081 4116.02,229.393 4125.09,229.393C4307.2,229.393 5024.01,229.393 5206.12,229.393C5215.18,229.393 5223.61,234.081 5228.38,241.786C5233.16,249.491 5233.61,259.119 5229.58,267.239C5160.71,405.939 4923.83,883.008 4879.37,972.544ZM4543.59,766.761L4361.2,401.94L4725.97,401.94L4543.59,766.761ZM4785.44,766.761L4761.12,718.427L4919.3,401.94L4967.79,401.94L4785.44,766.761Z" style="fill:rgb(214,211,209);"/>
            </g>
            <g>
                <g transform="matrix(0.9,0,0,0.892074,-2367.38,214.509)">
                    <path d="M3094.5,555.887L3027.42,690.047L2689.83,15.059L2823.63,15.059L2824,14.875L3094.5,555.887Z" style="fill:rgb(28,25,23);"/>
                </g>
                <g transform="matrix(0.9,0,0,0.892074,-3658.23,59.0254)">
                    <path d="M4718.27,893.914L4677.95,813.295L4745.04,679.129L4785.35,759.745L4997.18,336.068L5131.34,336.068L4852.43,893.914L4852.44,893.914L4852.44,893.914L4718.27,893.914Z" style="fill:rgb(28,25,23);"/>
                </g>
                <g transform="matrix(0.9,0,0,0.892074,-3658.23,59.0254)">
                    <path d="M4610.65,893.914L4476.49,893.914L4476.49,893.914L4768.77,309.345L4348.8,309.345L4288.8,189.345L5204.7,189.345L5144.7,309.345C5144.7,309.345 4902.87,309.345 4902.87,309.345L4902.92,309.371L4610.65,893.914Z" style="fill:rgb(20,71,230);"/>
                </g>
            </g>
        </g>
    </g>
</svg>
