<svg viewBox="0 0 1200 1211" xmlns="http://www.w3.org/2000/svg" style="fill-rule:evenodd;clip-rule:evenodd;stroke-linejoin:round;stroke-miterlimit:2;">
    <g transform="matrix(1,0,0,1,-4077.96,-1550.44)">
        <g transform="matrix(1.11111,0,0,1.12098,4077.96,1550.44)">
            <rect x="0" y="0" width="1080" height="1080" style="fill:none;"/>
            <g transform="matrix(0.969807,0,0,0.961267,-3996.71,-1487.77)">
                <path d="M4656.4,2563.64C4651.07,2578.32 4637.12,2588.1 4621.5,2588.1C4578.71,2588.1 4493.99,2588.1 4451.22,2588.1C4435.61,2588.1 4421.68,2578.34 4416.34,2563.68C4373.49,2445.99 4188,1936.43 4128.93,1774.17C4124.79,1762.79 4126.46,1750.11 4133.41,1740.19C4140.35,1730.27 4151.7,1724.36 4163.81,1724.36L5192.1,1724.36C5204.21,1724.36 5215.56,1730.27 5222.51,1740.19C5229.45,1750.11 5231.12,1762.79 5226.98,1774.17C5167.91,1936.43 4982.42,2445.99 4939.57,2563.68C4934.24,2578.34 4920.3,2588.1 4904.69,2588.1L4734.41,2588.1C4718.79,2588.1 4704.84,2578.32 4699.52,2563.64C4697.13,2557.07 4694.5,2549.81 4691.91,2542.68C4689.78,2536.81 4684.2,2532.9 4677.95,2532.9C4671.71,2532.9 4666.13,2536.81 4664,2542.68C4661.41,2549.81 4658.78,2557.07 4656.4,2563.64Z" style="fill:rgb(28,25,23);"/>
            </g>
            <g transform="matrix(1.85206,0,0,1.85206,-259.988,-64.2686)">
                <g transform="matrix(4.13318e-17,-0.669056,-0.675,-4.09679e-17,529.74,230.369)">
                    <path d="M-19.325,151.997C-14.911,150.39 -9.989,151.037 -6.141,153.731C-2.292,156.426 0,160.829 -0,165.527L0,336.487C0,342.536 3.781,347.939 9.463,350.013C28.546,356.976 71.977,372.823 97.306,382.065C101.721,383.676 106.645,383.031 110.495,380.337C114.346,377.643 116.64,373.239 116.64,368.539L116.64,-223.606C116.64,-228.302 114.349,-232.704 110.503,-235.399C106.656,-238.093 101.737,-238.742 97.323,-237.138C72.003,-227.934 28.575,-212.147 9.479,-205.206C3.788,-203.137 0,-197.729 0,-191.674C0,-154.629 0,-26.315 -0,10.72C-0,16.772 -3.785,22.178 -9.472,24.249C-70.31,46.404 -405.53,168.476 -466.368,190.631C-472.055,192.702 -475.84,198.108 -475.84,204.16L-475.84,297.673C-475.84,302.371 -473.548,306.774 -469.699,309.469C-465.851,312.163 -460.929,312.81 -456.515,311.203C-379.665,283.217 -96.175,179.983 -19.325,151.997Z" style="fill:rgb(43,127,255);fill-rule:nonzero;"/>
                </g>
                <g transform="matrix(0.675,4.09679e-17,-4.13318e-17,0.669056,-181.872,161.323)">
                    <path d="M527.351,5.882C525.744,1.467 526.392,-3.453 529.087,-7.301C531.781,-11.149 536.184,-13.44 540.881,-13.44C567.839,-13.44 614.081,-13.44 634.402,-13.44C640.453,-13.44 645.859,-9.656 647.93,-3.971C669.765,55.954 787.84,380 787.84,380L725.6,550.72C725.6,550.72 563.376,104.888 527.351,5.882Z" style="fill:rgb(254,255,254);fill-rule:nonzero;"/>
                </g>
                <g transform="matrix(4.13318e-17,-0.669056,-0.675,-4.09679e-17,522.828,243.322)">
                    <path d="M0,-80.64L0,-204.96C0,-204.96 -381.638,-65.976 -447.009,-42.169C-452.695,-40.098 -456.48,-34.692 -456.48,-28.64C-456.48,-5.332 -456.48,52.075 -456.48,75.372C-456.48,81.418 -452.702,86.82 -447.023,88.896C-420.972,98.415 -350.08,124.32 -350.08,124.32L-179.52,62.24C-179.52,62.24 -224.763,45.708 -256.244,34.204C-260.791,32.543 -263.813,28.217 -263.81,23.376C-263.806,18.536 -260.777,14.214 -256.228,12.56C-183.062,-14.053 0,-80.64 0,-80.64Z" style="fill:rgb(254,255,254);fill-rule:nonzero;"/>
                </g>
            </g>
        </g>
    </g>
</svg>
