<svg viewBox="0 0 2048 2048" xmlns="http://www.w3.org/2000/svg" style="fill-rule:evenodd;clip-rule:evenodd;stroke-linejoin:round;stroke-miterlimit:2;">
    <rect x="0" y="0" width="2048" height="2048" style="fill:rgb(206,232,243);"/>
    <g id="Illustration" transform="matrix(1,0,0,1,19.7788,0)">
        <g id="Shirt">
            <path d="M728,2080.83C710.207,1981.99 626.5,1666.81 641,1548C651.11,1465.16 783.167,1391.5 815,1368C826.409,1359.58 822.853,1396.16 832,1407C847.333,1425.17 884.667,1459.67 907,1477C924.932,1490.92 944.878,1519.31 966,1511C996.5,1499 1054.5,1440.67 1090,1405C1122.91,1371.94 1143.5,1302.67 1179,1297C1214.5,1291.33 1298.71,1323.06 1303,1371C1309.33,1441.83 1249.17,1605.91 1217,1722C1182.5,1846.5 1156.67,2047.17 1096,2118C1042.94,2179.96 911.04,2143.17 853,2147C817.939,2149.32 768.592,2152.03 747.759,2141C729.101,2131.12 731.741,2101.6 728,2080.83Z" style="fill:rgb(251,248,234);"/>
            <path d="M824,2048C819.833,2020.83 808.921,1976.86 803,1941C795.667,1896.59 785.167,1828.19 780,1781.52C775.569,1741.5 773.833,1692.09 772,1661C770.703,1639.02 769.333,1614.33 769,1595C768.713,1578.33 769.5,1555.17 770,1545C770.183,1541.28 768.823,1535.95 772,1534C777.167,1530.83 791.045,1527.21 801,1526C812,1524.67 825.769,1524.41 838,1526C850.833,1527.67 866,1531.5 878,1536C889.309,1540.24 902.333,1548.67 910,1553C914.83,1555.73 919.038,1564.48 924,1562C929.667,1559.17 941.333,1543.17 944,1536C946.03,1530.54 944.363,1522.85 940,1519C930,1510.17 897.5,1490.17 884,1483C876.356,1478.94 867.111,1479.02 859,1476C846,1471.17 819,1464.17 806,1454C793.836,1444.49 790.333,1419 781,1415C771.667,1411 755.942,1420.18 750,1430C741.833,1443.5 733.968,1473.28 732,1496C728,1542.17 723.833,1640.83 726,1707C728.04,1769.29 736.143,1831.31 745,1893C754.5,1959.17 769.167,2068.83 783,2104C788.491,2117.96 821.167,2113.33 828,2104C834.833,2094.67 826.837,2066.5 824,2048Z" style="fill:rgb(228,219,212);"/>
            <path d="M1136,1726C1128.83,1724.33 1132.23,1711.36 1133,1704C1135.33,1681.83 1146.83,1617.17 1150,1593C1151.48,1581.74 1154.83,1567 1152,1559C1149.37,1551.58 1140.33,1547.17 1133,1545C1125.67,1542.83 1116.12,1544.11 1108,1546C1095.83,1548.83 1072.67,1558.83 1060,1562C1050.89,1564.28 1040.33,1565.5 1032,1565C1024.41,1564.55 1016.5,1562.17 1010,1559C1003.59,1555.88 996.333,1550.17 993,1546C990.424,1542.78 990,1537.67 990,1534C990,1530.52 990.912,1526.78 993,1524C995.5,1520.67 1000.55,1516.7 1005,1514C1009.67,1511.17 1015.44,1508.72 1021,1507C1028,1504.83 1040.17,1502 1047,1501C1051.95,1500.28 1058.31,1504.38 1062,1501C1075.67,1488.5 1112.67,1436 1129,1426C1138.79,1420.01 1152.73,1432.12 1160,1441C1172,1455.67 1189,1495.5 1201,1514C1209.9,1527.71 1228.77,1535.98 1232,1552C1236.33,1573.5 1236.33,1616 1227,1643C1217.67,1670 1191.17,1700.17 1176,1714C1165.71,1723.38 1143.17,1727.67 1136,1726Z" style="fill:rgb(228,219,212);"/>
            <g transform="matrix(1.07018,0,0,1.10526,-76.8772,-174)">
                <path d="M981.5,1596C997.23,1596 1010,1608.77 1010,1624.5C1010,1640.23 997.23,1653 981.5,1653C965.77,1653 953,1640.23 953,1624.5C953,1608.77 965.77,1596 981.5,1596ZM981.5,1614.84C986.834,1614.84 991.164,1619.17 991.164,1624.5C991.164,1629.83 986.834,1634.16 981.5,1634.16C976.166,1634.16 971.836,1629.83 971.836,1624.5C971.836,1619.17 976.166,1614.84 981.5,1614.84Z" style="fill:rgb(228,219,212);"/>
            </g>
            <g transform="matrix(1.07018,0,0,1.10526,-107.877,170)">
                <path d="M981.5,1596C997.23,1596 1010,1608.77 1010,1624.5C1010,1640.23 997.23,1653 981.5,1653C965.77,1653 953,1640.23 953,1624.5C953,1608.77 965.77,1596 981.5,1596ZM981.5,1614.84C986.834,1614.84 991.164,1619.17 991.164,1624.5C991.164,1629.83 986.834,1634.16 981.5,1634.16C976.166,1634.16 971.836,1629.83 971.836,1624.5C971.836,1619.17 976.166,1614.84 981.5,1614.84Z" style="fill:rgb(228,219,212);"/>
            </g>
        </g>
        <g id="Jacket">
            <g transform="matrix(2,0,0,2,0,0)">
                <path d="M514.491,1024C519.079,1004.57 530.106,969.219 539.531,942.361C550.272,911.753 566.475,873.069 578.933,840.357C590.878,808.994 605.631,768.549 614.285,746.086C619.529,732.473 626.779,719.587 630.856,705.58C636.625,685.756 644.665,647.949 648.9,627.144C652.023,611.798 646.936,580.929 656.265,580.745C665.594,580.561 693.887,615.912 704.873,626.039C710.562,631.283 715.501,637.6 722.18,641.505C737.401,650.404 771.5,666.841 796.198,679.434C824.123,693.673 867.294,716.009 889.732,726.938C903.184,733.49 920.637,738.184 930.824,745.005C939.243,750.642 947.592,758.274 950.857,767.866C954.628,778.943 950.835,797.143 953.449,811.466C957.56,833.993 975.524,903.026 975.524,903.026L991.059,1003.14L993.361,1048.02L512,1058.95C512,1058.95 511.806,1035.37 514.491,1024Z" style="fill:rgb(12,20,57);"/>
            </g>
            <g transform="matrix(2,0,0,2,0,0)">
                <path d="M62.58,1024C66.887,1005.43 71.812,974.053 76.721,949.136C81.925,922.715 88.112,890.168 93.807,865.471C98.806,843.793 105.96,817.555 110.894,800.955C114.431,789.053 114.728,774.746 123.412,765.872C132.977,756.097 153.073,749.655 168.285,742.304C188.904,732.34 223.324,717.492 247.129,706.086C268.663,695.767 291.855,686.369 311.111,673.864C329.845,661.699 354.955,634.799 362.665,631.056C368.971,627.995 358.38,644.471 357.374,651.408C354.308,672.56 343.308,742.866 344.267,757.963C344.789,766.184 361.168,733.988 363.126,741.99C366.115,754.211 361.062,801.543 362.205,831.289C363.559,866.512 369.691,916.193 371.249,953.327C372.658,986.887 403.41,1043.43 371.559,1054.1C318.163,1071.97 102.373,1065.59 50.877,1060.58C38.135,1059.34 59.688,1036.47 62.58,1024Z" style="fill:rgb(25,33,70);"/>
            </g>
            <path d="M1024,2048C1045.17,1990.36 1112.83,1807.17 1144,1723C1166.23,1662.96 1195.67,1583.5 1211,1543C1219,1521.87 1224.5,1492.33 1236,1480C1246.31,1468.94 1265.24,1466.33 1280,1469C1294.76,1471.67 1310.81,1485.38 1324.56,1496C1348.06,1514.15 1401.43,1571.92 1421,1577.92C1437.09,1582.85 1433.17,1539.65 1442,1532C1450.06,1525.02 1463.56,1529.82 1474,1532C1504.33,1538.35 1589.5,1560.92 1624,1570.09C1643.15,1575.17 1665.33,1581.9 1681,1587C1693.5,1591.07 1709,1595.84 1718,1600.67C1724.72,1604.28 1732.83,1608.94 1735,1616C1737.17,1623.06 1731.83,1636.83 1731,1643C1730.55,1646.32 1729.33,1650.67 1730,1653C1730.59,1655.05 1732.96,1657.61 1735,1657C1738.33,1656 1744.26,1648.77 1750,1647C1760.62,1643.73 1774.82,1653.31 1781,1660C1785.78,1665.17 1790.61,1671.42 1794,1678C1799.5,1688.67 1809.6,1707.87 1814,1724C1820.5,1747.83 1831.05,1788.11 1833,1821C1835,1854.67 1832.08,1908.72 1826,1926C1824.07,1931.49 1822.98,1937.26 1822,1943C1821,1948.83 1820,1954.96 1820,1961C1820,1969.5 1821.85,1982.98 1822,1994C1822.17,2006.33 1821.17,2025.33 1821,2035C1820.9,2040.67 1826.63,2051.37 1821,2052C1786.5,2055.83 1647.33,2060.67 1614,2058C1606.33,2057.39 1619.72,2043.59 1621,2036C1624.17,2017.17 1626.4,1974.88 1633,1945C1643.5,1897.5 1681.67,1769 1684,1751C1686.33,1733 1657.5,1810.33 1647,1837C1637.42,1861.33 1630.33,1886.58 1621,1911C1608.33,1944.17 1582.5,2009.33 1571,2036C1565.74,2048.19 1565.2,2069.55 1552,2071C1462.33,2080.83 1122.17,2095.36 1033,2095C1022.78,2094.96 1018.5,2076.69 1017,2068.86C1015.62,2061.66 1021.47,2054.89 1024,2048Z" style="fill:rgb(25,33,70);"/>
            <path d="M264,2048C267.833,2038.66 275.616,2025.23 279,2013C283.333,1997.33 287.804,1973.88 290,1954C293,1926.83 294.833,1868.67 297,1850C297.384,1846.69 300.74,1839.55 303,1842C305.307,1844.5 309.134,1857.08 310.84,1865C319.673,1906 359.307,2051.67 356,2088C354.03,2109.64 307.667,2086.16 291,2083C278.658,2080.66 260.5,2074.86 256,2069.02C251.5,2063.19 261.152,2054.94 264,2048Z" style="fill:rgb(12,20,57);"/>
            <g id="Jacket-Contours">
                <g transform="matrix(2,0,0,2,0,0)">
                    <path d="M575.649,1024C579.192,1016.51 590.13,998.227 597.49,985.409C605.052,972.24 613.344,958.557 621.02,944.986C630.821,927.657 645.262,901.7 656.297,881.436C666.781,862.184 677.774,841.908 687.23,823.401C696.171,805.901 709.405,780.073 713.032,770.393C713.79,768.369 710.689,766.659 708.99,765.323C701.78,759.65 676.596,741.653 669.771,736.356C668.9,735.68 668.219,734.624 668.043,733.536C667.844,732.312 667.766,730.294 668.58,729.012C669.564,727.466 671.854,725.416 673.942,724.254C677.891,722.057 686.029,718.326 692.273,715.829C699.035,713.125 710.707,709.463 714.514,708.029C714.828,707.911 715.097,707.557 715.114,707.222C715.182,705.841 715.39,702.192 714.924,699.741C713.611,692.828 709.514,676.523 707.235,665.74C705.079,655.54 702.382,640.838 701.25,635.043C700.984,633.684 701.264,632.08 700.439,630.969C698.862,628.845 694.753,625.107 691.789,622.3C685.167,616.029 666.466,601.095 660.706,593.34C657.146,588.548 656.969,578.462 657.231,575.771C657.4,574.031 660.929,576.085 662.277,577.197C665.261,579.658 670.771,586.164 675.134,590.533C680.068,595.475 687.36,602.49 691.881,606.846C695.311,610.151 699.449,613.971 702.26,616.669C704.446,618.766 707.203,620.582 708.747,623.032C710.292,625.483 710.921,628.506 711.527,631.373C712.395,635.477 712.9,642.272 713.953,647.658C715.413,655.122 718.414,667.355 720.286,676.155C722.006,684.238 724.286,694.384 725.187,700.458C725.781,704.466 727.55,709.557 725.69,712.602C723.83,715.647 718.021,716.905 714.026,718.731C707.506,721.71 691.903,728.138 686.571,730.476C685.021,731.155 682.795,732.153 682.035,732.756C681.685,733.035 681.666,733.812 682.01,734.098C683.258,735.135 687.002,737.382 689.526,738.982C692.952,741.153 698.351,744.211 702.566,747.126C708.549,751.264 721.525,760.203 725.425,763.807C726.642,764.932 726.551,767.199 725.966,768.75C723.86,774.33 717.379,787.869 712.79,797.288C707.344,808.464 699.978,823.063 693.29,835.805C685.487,850.671 675.198,869.656 665.971,886.484C656.286,904.15 645.517,923.402 635.177,941.798C623.916,961.832 606.519,992.583 598.404,1006.69C594.569,1013.36 589.379,1022.35 586.488,1026.45C585.092,1028.43 582.768,1030.62 581.058,1031.28C579.529,1031.86 577.133,1031.59 576.232,1030.37C575.33,1029.16 574.738,1025.93 575.649,1024Z" style="fill:rgb(7,14,49);"/>
                </g>
                <g transform="matrix(2,0,0,2,0,0)">
                    <path d="M701.69,1024C711.415,1022.56 745.977,1019.6 755.691,1018.44C757.182,1018.26 759.293,1018.37 759.97,1017.02C760.815,1015.35 760.484,1011.26 760.761,1008.39C761.413,1001.61 763.4,981.921 763.883,976.372C763.921,975.94 764.088,975.153 763.659,975.091C762.758,974.963 760.201,975.394 758.477,975.6C750.528,976.546 730.136,979.052 715.964,980.772C695.824,983.217 656.264,988.009 637.637,990.27C626.491,991.624 610.188,994.587 604.201,994.343C602.18,994.261 601.684,990.555 601.712,988.809C601.74,987.063 602.565,984.362 604.369,983.866C609.012,982.59 621.186,982.166 629.575,981.148C644.619,979.323 672.939,975.596 694.633,972.918C716.818,970.178 749.677,966.1 762.688,964.712C766.008,964.358 770.524,963.848 772.704,964.592C774.443,965.186 775.672,967.342 775.765,969.177C775.966,973.159 774.651,982.061 773.91,988.484C772.978,996.568 770.905,1012.13 770.17,1017.69C769.987,1019.07 769.912,1020.77 769.502,1021.82C769.16,1022.7 768.441,1023.44 767.71,1024C766.979,1024.56 766.054,1025.03 765.115,1025.15C757.279,1026.16 732.176,1028.8 720.695,1030.04C712.543,1030.91 700.122,1033.08 696.229,1032.58C694.369,1032.35 696.431,1028.5 697.341,1027.07C698.252,1025.64 699.935,1024.26 701.69,1024Z" style="fill:rgb(7,14,49);"/>
                </g>
                <g transform="matrix(2,0,0,2,0,0)">
                    <path d="M168.135,1024C166.894,1017.85 163.808,1004.45 162.105,997.022C160.758,991.141 159.054,985.338 157.918,979.412C156.114,970.002 153.474,952.403 151.282,940.558C149.288,929.784 146.374,917.128 144.766,908.34C143.52,901.536 142.513,893.739 141.628,887.827C140.882,882.842 140.067,877.867 139.456,872.864C138.109,861.823 134.871,835.196 133.544,821.581C132.558,811.47 131.854,801.048 131.492,791.173C131.14,781.567 130.587,768.387 131.372,762.334C131.753,759.391 134.167,756.401 136.198,754.853C138.208,753.321 142.33,752.734 143.559,753.043C144.744,753.341 143.61,755.487 143.573,756.708C143.483,759.752 143.042,766.436 143.017,771.305C142.983,778.206 143.046,790.467 143.366,798.112C143.632,804.483 144.302,810.832 144.935,817.177C146.121,829.083 148.071,852.159 150.485,869.546C153.381,890.402 158.409,920.146 162.31,942.308C165.854,962.437 171.159,988.905 173.894,1002.52C175.34,1009.72 177.836,1019.03 178.721,1024C179.208,1026.74 180.732,1030.67 179.204,1032.33C177.675,1033.98 171.395,1035.32 169.55,1033.93C167.706,1032.55 168.796,1027.28 168.135,1024Z" style="fill:rgb(7,14,49);"/>
                </g>
                <g transform="matrix(2,0,0,2,0,0)">
                    <path d="M377.991,1024C376.88,1016.18 374.277,1003.11 372.682,992.629C370.751,979.939 368.133,960.753 366.407,947.862C364.955,937.014 363.457,925.874 362.326,915.282C361.227,904.978 360.235,894.655 359.624,884.31C358.696,868.6 357.189,842.135 356.759,821.021C356.257,796.377 355.686,754.033 356.61,736.444C356.99,729.215 360.673,716.909 362.306,715.488C363.939,714.066 365.383,723.794 366.408,727.916C367.413,731.953 368.34,736.067 368.46,740.224C368.741,749.958 368.112,770.953 368.098,786.319C368.083,803.023 368.079,826.149 368.37,840.449C368.585,851.014 369.064,861.579 369.843,872.118C370.836,885.546 372.95,907.54 374.326,921.02C375.415,931.697 376.906,943.772 378.097,952.996C379.105,960.802 380.25,968.59 381.472,976.366C383.33,988.2 387.638,1013.9 389.249,1024C389.936,1028.31 392.784,1034.37 391.134,1036.95C389.485,1039.54 381.541,1041.69 379.351,1039.53C377.16,1037.37 378.723,1029.14 377.991,1024Z" style="fill:rgb(7,14,49);"/>
                </g>
                <g transform="matrix(2,0,0,2,0,0)">
                    <path d="M505.277,1031.11C503.558,1029.78 505.249,1026.27 505.984,1024C509.205,1014.06 518.365,988.978 524.602,971.483C531.279,952.753 538.815,931.545 546.048,911.621C553.472,891.175 561.363,869.714 569.145,848.807C577.668,825.907 589.099,795.57 597.19,774.222C603.959,756.365 611.841,737.3 617.694,720.724C623.046,705.567 628.039,690.265 632.306,674.767C636.901,658.074 642.292,635.352 645.268,620.562C647.561,609.165 649.501,592.679 650.163,586.03C650.342,584.224 649.941,582.337 649.236,580.664C648.082,577.927 645.186,573.319 643.239,569.605C640.776,564.907 636.436,555.858 634.457,552.472C633.711,551.195 632.551,550.174 631.368,549.286C629.72,548.05 625.728,546.917 624.569,545.056C623.411,543.194 623.363,539.274 624.418,538.117C625.474,536.961 628.969,537.715 630.904,538.117C632.754,538.502 634.554,539.355 636.033,540.531C638.245,542.29 642.06,545.472 644.178,548.676C647.068,553.05 650.528,562.049 653.378,566.776C655.608,570.471 660.048,572.896 661.282,577.032C662.69,581.752 662.343,589.092 661.824,595.092C661.191,602.426 659.422,612.485 657.48,621.035C654.296,635.062 648.595,660.114 642.717,679.252C635.734,701.989 625.019,731.531 615.579,757.461C605.668,784.687 593.686,814.827 583.248,842.607C573.049,869.749 562.371,898.16 552.946,924.143C543.984,948.853 532.584,981.86 526.701,998.503C523.696,1007.01 519.386,1018.42 517.652,1024C516.85,1026.58 518.357,1030.8 516.294,1031.99C514.232,1033.17 506.995,1032.44 505.277,1031.11Z" style="fill:rgb(7,14,49);"/>
                </g>
                <g transform="matrix(2,0,0,2,0,0)">
                    <path d="M281.065,705.28C286.186,699.04 302.785,678.356 310.478,669.683C315.668,663.832 321.433,658.505 327.22,653.242C335.265,645.927 352.609,630.507 358.744,625.791C360.159,624.703 363.667,623.199 364.032,624.947C364.488,627.135 363.401,635.385 361.483,638.924C359.652,642.304 355.467,643.711 352.525,646.184C349.228,648.954 345.165,652.268 341.701,655.549C336.358,660.61 327.196,669.218 320.464,676.554C312.87,684.83 301.067,699.323 296.138,705.205C294.325,707.368 291.363,710.173 290.886,711.847C290.507,713.179 292.206,714.37 293.28,715.245C296.125,717.561 303.59,722.555 307.953,725.747C311.826,728.581 316.877,732.299 319.46,734.397C320.91,735.575 322.784,736.894 323.449,738.335C324.106,739.761 324.726,742.132 323.449,743.046C315.589,748.671 285.211,766.48 276.29,772.083C274.076,773.474 271.05,774.385 269.924,776.668C268.799,778.95 269.28,782.751 269.538,785.78C270.09,792.249 271.763,805.612 273.236,815.479C274.938,826.884 277.34,841.344 279.752,854.213C282.386,868.27 285.946,885.787 289.043,899.824C291.895,912.752 295.16,925.585 298.334,938.438C301.652,951.872 306.037,969.207 308.953,980.429C311.154,988.9 313.779,998.507 315.831,1005.77C317.554,1011.87 319.732,1019.03 321.261,1024C322.453,1027.88 326.59,1033.66 325.001,1035.57C323.413,1037.48 314.267,1037.38 311.728,1035.45C309.189,1033.52 310.719,1027.75 309.766,1024C308.299,1018.22 305.15,1008.53 302.926,1000.77C299.855,990.053 294.075,969.768 291.34,959.706C289.6,953.305 287.962,946.873 286.513,940.4C284.241,930.243 280.271,910.668 277.705,898.77C275.563,888.838 273.079,878.979 271.115,869.01C268.836,857.439 265.715,839.053 264.026,829.341C262.95,823.151 261.768,816.973 260.984,810.739C259.894,802.081 257.999,783.87 257.491,777.389C257.346,775.544 256.69,773.223 257.935,771.854C260.16,769.407 266.366,765.504 270.835,762.71C278.85,757.699 299.911,745.503 306.022,741.79C306.595,741.442 307.853,741.004 307.505,740.431C306.918,739.463 304.257,737.359 302.501,735.982C299.464,733.603 293.018,729.198 289.287,726.152C286.068,723.524 281.961,719.971 280.117,717.706C278.963,716.289 278.283,714.326 278.222,712.563C278.162,710.799 279.279,708.338 279.753,707.124C280.027,706.421 280.587,705.863 281.065,705.28Z" style="fill:rgb(7,14,49);"/>
                </g>
                <g transform="matrix(2,0,0,2,0,0)">
                    <path d="M57.369,1030.76C57.974,1016.72 65.383,975.193 70.038,948.106C74.63,921.393 78.95,894.588 85.303,868.24C91.923,840.788 104.55,800.139 109.755,783.396C111.439,777.978 114.246,771.969 116.53,767.782C118.409,764.341 120.754,761.114 123.463,758.279C126.452,755.151 130.275,751.34 134.467,749.012C139.278,746.341 146.452,744.705 152.326,742.255C167.999,735.717 207.649,719.461 228.505,709.785C245.209,702.035 261.881,691.879 277.465,684.197C292.126,676.971 316.43,664.204 322.008,663.694C327.585,663.183 315.487,677.009 310.931,681.134C306.525,685.122 300.011,685.835 294.669,688.44C282.021,694.607 251.937,710.086 235.043,718.135C221.293,724.686 207.344,730.821 193.308,736.735C178.124,743.134 154.192,751.577 143.937,756.528C139.227,758.801 134.696,763.582 131.775,766.437C129.631,768.532 127.536,770.877 126.408,773.655C122.988,782.082 115.669,802.66 111.253,816.998C106.919,831.069 103.224,845.34 99.914,859.686C95.729,877.822 90.089,905.716 86.144,925.81C82.591,943.909 79.536,962.49 76.246,980.251C73.025,997.639 69.551,1023.96 66.404,1032.38C65.333,1035.25 57.237,1033.82 57.369,1030.76Z" style="fill:rgb(7,14,49);"/>
                </g>
                <g transform="matrix(2,0,0,2,0,0)">
                    <path d="M803.531,1024C805.466,1014.51 809.234,990.944 812.737,974.546C816.726,955.87 821.281,932.47 827.467,911.944C834.218,889.543 844.836,861.188 853.244,840.137C860.641,821.618 868.547,801.759 877.916,785.637C886.745,770.445 902.984,750.929 909.458,743.403C911.169,741.414 915.003,739.74 916.764,740.479C918.524,741.219 920.444,745.447 920.022,747.84C919.6,750.233 916.28,752.61 914.23,754.838C911.233,758.096 905.783,763.024 902.043,767.388C898.341,771.706 894.89,776.258 891.786,781.023C888.629,785.87 885.789,791.21 883.098,796.468C879.619,803.266 874.289,814.468 870.911,821.808C868.071,827.978 865.205,834.15 862.826,840.512C857.396,855.032 845.114,886.854 838.331,908.929C831.863,929.975 825.931,956.115 822.124,972.961C819.359,985.197 816.956,1001.5 815.487,1010C814.685,1014.66 813.879,1020.23 813.315,1024C812.886,1026.88 813.195,1030.93 812.109,1032.66C811.12,1034.23 808.63,1034.58 806.8,1034.38C804.969,1034.18 801.673,1033.21 801.128,1031.48C800.583,1029.75 803.007,1026.57 803.531,1024Z" style="fill:rgb(7,14,49);"/>
                </g>
                <g transform="matrix(2,0,0,2,0,0)">
                    <path d="M989,1024C988.333,1018 987.139,1007.32 986,999C984.333,986.833 981.333,964.833 979,951C977.021,939.268 974.44,927.645 972,916C968.333,898.5 960.5,861.167 957,846C955.363,838.906 951.962,832.216 951,825C949.667,815 949.833,795 949,786C948.53,780.923 947.95,775.712 946,771C944,766.167 941.235,760.584 937,757C932.667,753.333 925.572,751.859 920,749C907.333,742.5 880.824,728.029 861,718C832.667,703.667 774.833,675.5 750,663C737.214,656.564 718.667,648.167 712,643C709.054,640.717 706.285,631.703 710,632C714.167,632.333 727.979,640.71 737,645C750.667,651.5 773.785,662.086 792,671C815.5,682.5 856.667,703.333 878,714C892,721 910.333,730.333 920,735C925.242,737.531 931.667,739.333 936,742C939.819,744.35 943.081,747.595 946,751C949,754.5 951.976,758.64 954,763C956.167,767.667 958.262,773.461 959,779C960,786.5 960,795.833 960,808C960,815.167 963.776,828.713 966,839C970,857.5 979,893.5 984,919C988.745,943.199 993.333,974.5 996,992C997.619,1002.63 999.167,1017.4 1000,1024C1000.32,1026.53 1002.67,1029.74 1001,1031.57C999.333,1033.41 992,1036.26 990,1035C988,1033.74 989.407,1027.66 989,1024Z" style="fill:rgb(7,14,49);"/>
                </g>
            </g>
        </g>
        <g id="Collar">
            <path d="M1057.13,1502.91C1049.14,1501.32 1032.6,1480.14 1038.53,1468.53C1049.9,1446.27 1098.3,1403.96 1125.33,1369.33C1154.08,1332.5 1194.1,1272.84 1211.01,1247.57C1217.28,1238.21 1218.25,1222.3 1226.79,1217.7C1235.34,1213.1 1252.73,1212.95 1262.31,1219.95C1273.48,1228.13 1294.2,1247.93 1293.87,1266.74C1293.27,1301.31 1270.28,1382.09 1258.67,1427.38C1249.05,1464.94 1236.14,1527.67 1224.25,1538.47C1212.36,1549.27 1197.43,1508.84 1187.34,1492.2C1177.24,1475.57 1172.49,1450.12 1163.66,1438.66C1156.94,1429.93 1142.71,1422.12 1134.35,1423.44C1125.99,1424.75 1120.34,1438.74 1113.5,1446.55C1105.51,1455.66 1095.84,1468.72 1086.44,1478.11C1077.39,1487.16 1065.12,1504.51 1057.13,1502.91Z" style="fill:rgb(251,248,234);"/>
            <path d="M870.889,1482.01C876.962,1479.9 889.07,1471.74 885.68,1465.05C878.886,1451.64 844.134,1425.55 830.125,1401.56C816.116,1377.57 808.526,1348.71 801.626,1321.12C794.291,1291.77 789.902,1248.54 786.114,1225.52C783.778,1211.32 784.07,1186.8 778.899,1182.95C773.728,1179.1 759.497,1193.17 755.09,1202.43C745.53,1222.51 728.875,1276.62 721.54,1303.44C716.194,1322.98 714.285,1343.31 711.078,1363.32C706.81,1389.96 698.813,1438.96 695.927,1463.25C694.123,1478.43 689.614,1506.48 693.763,1509.06C697.911,1511.65 713.328,1490.04 720.819,1478.76C730.92,1463.55 745.049,1429.16 754.368,1417.8C759.336,1411.74 770.186,1406.28 776.734,1410.58C784.791,1415.87 791.252,1438.94 802.708,1449.54C814.793,1460.72 837.881,1472.27 849.244,1477.68C855.888,1480.84 864.817,1484.11 870.889,1482.01Z" style="fill:rgb(251,248,234);"/>
            <path d="M1246.3,1270.44C1245.09,1265.91 1242.79,1261.4 1240.24,1257.75C1237.75,1254.17 1234.98,1250.28 1231,1248.51C1227.01,1246.73 1220.51,1246.78 1216.28,1247.07C1212.58,1247.32 1204.27,1253.71 1205.6,1250.24C1207.72,1244.76 1223.11,1227.24 1228.98,1214.17C1236.05,1198.44 1244.61,1173.14 1248.03,1155.87C1250.96,1141.05 1247.02,1121.72 1249.47,1110.56C1251.29,1102.29 1257.79,1089.69 1262.75,1088.92C1267.7,1088.15 1275.03,1099.24 1279.2,1105.94C1284.58,1114.6 1290.91,1128.77 1295.07,1140.86C1299.64,1154.14 1305.93,1170.21 1306.61,1185.6C1307.43,1203.97 1303.07,1229.38 1299.98,1251.11C1295.65,1281.51 1290.16,1329.89 1280.64,1367.99C1271.12,1406.09 1250.53,1456.68 1242.83,1479.68C1239.92,1488.39 1236.49,1501.69 1234.46,1505.94C1233.9,1507.11 1230.68,1506.46 1230.65,1505.17C1230.36,1492.42 1230.12,1454.56 1232.69,1429.44C1235.39,1402.93 1243.86,1368.06 1246.91,1346.14C1249.13,1330.16 1251.07,1310.55 1250.97,1297.93C1250.9,1288.64 1248.09,1277.14 1246.3,1270.44Z" style="fill:rgb(228,219,212);"/>
            <path d="M837.436,1424.5C832.686,1424.02 818.022,1415.22 810.38,1407.9C801.902,1399.79 792.352,1387.8 786.57,1375.8C780.257,1362.69 774.535,1345.34 772.501,1329.26C769.916,1308.82 770.277,1273.46 771.058,1253.14C771.65,1237.75 774.064,1213.88 777.191,1207.33C779.229,1203.06 788.232,1209.36 789.817,1213.82C792.402,1221.1 791.325,1238.63 792.703,1250.98C794.266,1264.99 795.893,1282.44 799.196,1297.88C803.405,1317.54 811.342,1350.12 817.955,1368.94C823.126,1383.65 835.632,1401.53 838.879,1410.79C840.399,1415.12 842.007,1424.96 837.436,1424.5Z" style="fill:rgb(228,219,212);"/>
            <path d="M960.088,1511.9C976.529,1509.31 1004.4,1490.48 1022.8,1474.55C1052.51,1448.84 1107.58,1396.82 1138.35,1357.59C1166.54,1321.65 1188.73,1272.1 1207.4,1239.22C1222.19,1213.18 1245.21,1189.81 1250.38,1160.31C1257.66,1118.74 1262.82,1004.13 1251.08,989.801C1239.34,975.475 1203.64,1046.4 1179.92,1074.35C1156.31,1102.16 1136,1134.83 1108.76,1157.49C1081.51,1180.16 1051.27,1203.62 1016.46,1210.34C980.521,1217.26 925.212,1210.92 893.153,1199.06C864.578,1188.49 843.245,1155.5 824.104,1139.17C809.003,1126.3 784.882,1094.2 778.306,1101.12C771.73,1108.05 781.928,1154.26 784.647,1180.74C787.818,1211.63 791.811,1255.08 797.33,1286.43C802.238,1314.31 807.429,1344.44 817.763,1368.87C827.687,1392.33 842.529,1413.84 859.333,1432.98C877.065,1453.18 907.362,1476.9 924.155,1490.06C935.19,1498.7 946.241,1514.07 960.088,1511.9Z" style="fill:rgb(244,151,111);"/>
            <path d="M1058.65,1328.47C1032.04,1326.35 1005.29,1320.23 980.805,1309.57C955.469,1298.53 928.743,1281.51 906.636,1262.24C884.51,1242.95 862.865,1211.97 848.051,1193.84C837.4,1180.8 828.041,1166.18 817.748,1153.43C807.724,1141.02 792.56,1117.62 786.291,1117.36C780.022,1117.1 779.252,1140.24 780.136,1151.9C781.586,1171.04 788.886,1209.42 794.995,1232.23C800.219,1251.73 808.34,1270.41 816.79,1288.75C825.596,1307.86 836.512,1328.06 847.831,1346.89C859.438,1366.21 873.685,1387.48 886.431,1404.61C898.147,1420.37 910.1,1436.16 924.309,1449.71C939.701,1464.38 960.985,1489.27 978.782,1492.64C996.579,1496 1015.98,1481.45 1031.09,1469.91C1050.69,1454.94 1081.17,1419.29 1096.38,1402.81C1105.66,1392.77 1113.61,1381.57 1122.36,1371.07C1134.38,1356.63 1161.8,1325.85 1168.54,1316.23C1169.77,1314.47 1164.83,1312.74 1162.76,1313.35C1159.1,1314.43 1152.71,1321.83 1146.53,1322.73C1129.18,1325.25 1086.28,1330.66 1058.65,1328.47Z" style="fill:rgb(255,197,153);"/>
            <path d="M1064.08,1506.4C1069.68,1503.33 1079.01,1496.02 1085.32,1489.55C1094.79,1479.85 1113.72,1457.11 1120.88,1448.22C1123.82,1444.56 1125.99,1438.76 1128.26,1436.22C1129.82,1434.47 1132.33,1432.09 1134.5,1432.99C1138.42,1434.6 1147.49,1440.15 1151.81,1445.91C1158.97,1455.46 1169.29,1475.25 1177.44,1490.24C1185.79,1505.6 1194.45,1525.33 1201.91,1538.03C1207.81,1548.07 1217.71,1563.11 1222.23,1566.45C1225.12,1568.59 1227.52,1561.36 1229.04,1558.1C1234.19,1547.15 1246.17,1520.27 1253.11,1500.72C1262.2,1475.12 1275.41,1435.98 1283.57,1404.53C1291.46,1374.1 1297.32,1343.12 1302.04,1312.04C1306.92,1279.86 1310.91,1234.63 1312.86,1211.48C1313.93,1198.74 1314.01,1182.94 1313.76,1173.15C1313.59,1166.3 1313.29,1155.18 1311.38,1152.74C1309.46,1150.29 1303.2,1155.02 1302.28,1158.48C1300.98,1163.4 1303.96,1174.31 1303.57,1182.23C1302.65,1200.9 1301.7,1241.41 1296.75,1270.5C1291.03,1304.08 1278.11,1350.59 1269.24,1383.72C1261.54,1412.5 1251.55,1444.87 1243.54,1469.31C1236.78,1489.91 1226.34,1522.49 1221.16,1530.38C1218.18,1534.91 1214.86,1521.5 1212.45,1516.63C1208.97,1509.63 1204.42,1497.75 1200.33,1488.35C1195.9,1478.2 1191.33,1465.65 1185.9,1455.74C1180.7,1446.27 1173.63,1435.68 1167.71,1428.9C1162.86,1423.33 1156.09,1417.99 1150.4,1415.05C1145.29,1412.41 1137.6,1411.63 1133.58,1411.27C1131.09,1411.05 1128.02,1411.12 1126.27,1412.9C1120.39,1418.89 1106.91,1436.11 1098.28,1447.22C1090.06,1457.79 1081.81,1470.68 1074.45,1479.54C1068.25,1487.02 1058.13,1496.26 1054.13,1500.42C1052.86,1501.73 1050.84,1503.22 1050.44,1504.48C1050.06,1505.67 1050.5,1507.81 1051.73,1507.99C1054.01,1508.31 1060.44,1508.4 1064.08,1506.4Z" style="fill:rgb(7,14,49);"/>
            <path d="M826,1479C818.5,1474.5 810.704,1468.4 804,1462C796.667,1455 787,1443.17 782,1437C778.972,1433.27 775.833,1427.5 774,1425C773.164,1423.86 772.355,1421.59 771,1422C769.333,1422.5 765.619,1425.39 764,1428C758.833,1436.33 749.412,1458.2 740,1472C729.532,1487.35 710.788,1512.58 701.193,1520.1C696.212,1524.01 683.784,1523.36 682.426,1517.17C679.909,1505.71 684.535,1469.54 686.093,1451.36C687.335,1436.86 689.69,1422.47 691.771,1408.07C693.938,1393.08 696.39,1375.74 699.093,1361.39C701.585,1348.16 704.695,1335.05 707.989,1322C711.613,1307.64 718.669,1285.05 720.838,1275.22C721.715,1271.24 721.285,1267.06 721,1263C720.694,1258.63 717.726,1253.54 719,1249C721.667,1239.5 729.339,1219.52 737,1206C745.5,1191 763.167,1163.67 770,1159C775.675,1155.12 777.5,1172.17 778,1178C778.477,1183.57 775.559,1189.03 773,1194C770.167,1199.5 764.065,1204.78 761,1211C755.5,1222.17 746.111,1243.99 740,1261C733.833,1278.17 728.512,1296.11 724,1314C719.167,1333.17 714.333,1356.67 711,1376C707.916,1393.89 706.215,1411.99 704,1430C701.5,1450.33 697.333,1486 696,1498C695.853,1499.33 695.333,1501.5 696,1502C696.667,1502.5 699.275,1502.17 700,1501C703,1496.17 709.14,1482.23 714,1473C720.667,1460.33 734.167,1435.5 740,1425C742.832,1419.9 745.833,1414.17 749,1410C751.852,1406.25 755.512,1402.82 759,1400C762.711,1397 768.239,1395.59 772.847,1395.64C779.941,1395.7 788.361,1404.61 793,1415C796.207,1422.18 802.045,1427.89 807,1434C812,1440.17 817.025,1446.64 823,1452C829.5,1457.83 838.833,1464.83 846,1469C852.207,1472.61 861.333,1474.67 866,1477C868.981,1478.49 874,1481 874,1483C874,1485 869.241,1488.22 866,1489C861.833,1490 854.497,1490.37 849,1489C842.333,1487.33 833.169,1483.3 826,1479Z" style="fill:rgb(7,14,49);"/>
            <path d="M870,2049C871.333,2023.67 875,1954 878,1908C880.937,1862.97 885.333,1809 888,1773C890,1746 891.081,1718.92 894,1692C897,1664.33 901.833,1629.5 906,1607C909.136,1590.07 914.333,1570.5 919,1557C922.75,1546.15 930.5,1532.67 934,1526C935.676,1522.81 941.55,1520.26 940,1517C938.333,1513.5 929.262,1509.09 924,1505C913.5,1496.83 890.167,1479.33 877,1468C865.744,1458.31 852.667,1445.17 845,1437C839.797,1431.46 835,1424.5 831,1419C827.466,1414.14 823.886,1409.27 821,1404C817.167,1397 811.538,1386.34 808,1377C803.833,1366 799.183,1351.22 796,1338C791.667,1320 785.512,1292.2 782,1269C777.333,1238.17 771.259,1184.34 768,1153C765.509,1129.05 761.945,1092.81 762.445,1080.97C762.566,1078.1 768.945,1079.99 771,1082C774.759,1085.67 782.2,1095.07 785,1103C788,1111.5 787.758,1122.99 789,1133C791.833,1155.83 797.167,1207.67 802,1240C806.359,1269.16 811.667,1302.67 818,1327C823.287,1347.31 831,1368.67 840,1386C848.482,1402.34 859.268,1417.71 872,1431C887.167,1446.83 917.167,1469.67 931,1481C938.735,1487.34 950.333,1495.67 955,1499C956.213,1499.87 957.646,1501.62 959,1501C961.167,1500 964.712,1495.3 968,1493C973,1489.5 981.968,1484.28 989,1480C996.667,1475.33 1006.19,1470.79 1014,1465C1023.67,1457.83 1036.74,1447.14 1047,1437C1060.67,1423.5 1080.71,1402.58 1096,1384C1115.33,1360.5 1144.17,1322.83 1163,1296C1179.52,1272.46 1197.92,1246.07 1209,1223C1218.94,1202.3 1233.76,1179.78 1237,1159C1243.25,1118.92 1236.46,1034.97 1238,1008C1238.39,1001.21 1239.67,993.333 1242,988C1244.09,983.23 1248.83,977.333 1252,976C1255.03,974.726 1260.78,976.724 1261,980C1262.67,1005 1261.83,1096.33 1262,1126C1262.06,1136.67 1264.82,1147.71 1262,1158C1257.67,1173.83 1246.92,1201.08 1236,1221C1220.83,1248.67 1194.39,1290.82 1171,1324C1147.5,1357.33 1116.83,1396 1095,1421C1078.25,1440.18 1056.33,1460.67 1040,1474C1026.89,1484.7 1009.33,1492.67 997,1501C986.339,1508.2 974,1516.5 966,1524C959.239,1530.34 953.438,1537.86 949,1546C944,1555.17 939.231,1567.63 936,1579C931.833,1593.67 926.337,1615.38 924,1634C919,1673.83 910.5,1761.17 906,1818C901.862,1870.26 899.333,1936 897,1975C895.464,2000.67 893.5,2036.17 892,2052C891.42,2058.12 892.167,2065.67 888,2070C883.833,2074.33 870,2079.67 867,2078C864,2076.33 869.5,2064.83 870,2060C870.377,2056.35 869.807,2052.66 870,2049Z" style="fill:rgb(7,14,49);"/>
        </g>
        <g id="Face" transform="matrix(0.999145,0.0413437,-0.0413437,0.999145,49.2973,-36.3696)">
            <path d="M976.895,1211.3C1011.43,1208.42 1058.67,1195.78 1091.04,1171.84C1130.73,1142.49 1185.22,1078.25 1215.04,1035.15C1240.41,998.507 1260.06,956.71 1270,913.262C1284.21,851.142 1299.48,727.018 1300.3,662.431C1300.89,616.094 1285.45,560.585 1274.93,525.742C1267.07,499.696 1246.47,478.95 1237.18,453.377C1224.21,417.637 1223.09,339.992 1197.09,311.305C1171.09,282.617 1120.52,287.973 1081.17,281.252C1041.54,274.482 1000.02,268.752 959.281,270.683C907.259,273.149 821.417,272.092 769.043,296.048C717.077,319.817 668.64,372.965 645.037,414.418C623.342,452.519 628.93,500.948 627.422,544.766C625.661,595.965 629.536,669.007 634.468,721.616C638.843,768.285 650.688,824.698 657.015,860.419C661.496,885.718 662.486,912.25 672.428,935.941C683.253,961.739 704.374,989.492 721.969,1015.21C741.051,1043.1 762.075,1076.57 786.922,1103.28C813.895,1132.27 852.14,1171.15 883.802,1189.15C911.53,1204.92 945.109,1213.95 976.895,1211.3Z" style="fill:rgb(255,197,153);"/>
            <path d="M1197.13,887.303C1191.98,887.656 1199.74,877.302 1201.49,872.45C1205.43,861.601 1216.81,839.71 1220.72,822.21C1226.32,797.09 1233.17,743.574 1235.13,721.731C1236.05,711.541 1235.58,700.91 1232.51,691.15C1229.31,680.956 1224.37,668.504 1215.91,660.569C1206.52,651.759 1187.59,642.949 1176.16,638.289C1167.09,634.591 1157.12,632.675 1147.32,632.61C1125.41,632.464 1066.65,633.848 1044.66,637.415C1033.59,639.212 1022.38,648.847 1015.39,654.016C1010.25,657.82 1008.5,665.682 1002.72,668.433C996.604,671.345 986.2,674.459 978.692,671.491C969.299,667.777 953.936,651.686 946.364,646.153C942.251,643.147 938.348,638.515 933.258,638.289C926.705,637.998 914.473,640.546 907.046,644.405C899.64,648.253 894.35,655.302 888.698,661.443C882.8,667.85 877.339,679.791 871.66,682.849C866.579,685.585 859.452,682.947 854.622,679.791C849.161,676.224 841.37,668.069 838.895,661.443C836.419,654.817 844.209,645.63 839.769,640.036C833.792,632.509 816.023,622.909 803.037,616.277C789.871,609.553 775.597,602.732 760.771,599.693C745.632,596.591 722.774,597.562 712.203,597.66C707.176,597.707 700.865,601.88 697.35,600.282C693.835,598.683 687.583,590.976 691.111,588.068C697.643,582.683 720.161,570.382 736.545,567.972C758.825,564.696 804.332,566.88 824.792,568.409C836.626,569.293 850.634,572.955 859.305,577.146C866.507,580.628 871.962,588.358 876.819,593.555C881.098,598.133 882.404,606.666 888.446,608.328C899.316,611.319 931.858,612.684 942.039,611.499C946.25,611.009 946.985,604.612 949.529,601.22C953.544,595.867 959.388,585.557 966.129,579.377C973.993,572.169 985.265,562.853 996.71,557.971C1012.58,551.199 1039.46,543.809 1061.37,538.748C1086.27,532.996 1129.81,529.72 1146.12,523.458C1154.16,520.37 1157.19,509.551 1159.23,501.178C1162.94,485.888 1168.19,455.07 1168.4,431.716C1168.62,406.815 1164.47,372.885 1160.54,351.769C1157.53,335.607 1159.49,312.423 1144.81,305.025C1121.51,293.283 1046.36,282.939 1020.72,281.318C1009.8,280.627 1001.59,292.461 991.017,295.298C971.213,300.613 929.128,308.04 901.896,313.209C877.199,317.898 851.74,319.204 827.629,326.315C801.708,333.96 770.153,346.024 746.372,359.08C724.023,371.35 696.399,396.079 684.944,404.652C682.444,406.523 678.277,413.579 677.643,410.522C676.975,407.301 677.481,393.06 680.936,385.327C686.137,373.683 694.348,350.553 708.852,340.657C733.065,324.136 783.965,294.863 826.212,286.205C881.159,274.946 975.766,268.658 1038.53,273.099C1094.72,277.076 1171.34,293.195 1202.79,312.854C1225.95,327.33 1219.6,364.837 1227.26,391.053C1235.34,418.722 1241.02,450.831 1251.28,478.864C1261.45,506.636 1281.38,531.83 1288.85,559.247C1296.26,586.401 1294.96,615.248 1296.15,643.368C1297.5,675.13 1303.96,715.035 1296.95,749.82C1289.37,787.439 1267.28,846.171 1250.64,869.085C1239.57,884.333 1205.32,886.742 1197.13,887.303Z" style="fill:rgb(245,152,112);"/>
            <path d="M702.478,849.722C699.682,833.727 696.558,815.261 693.811,797.997C690.875,779.543 686.309,758.341 684.864,739.002C683.448,720.042 683.942,700.939 685.144,681.965C686.495,660.622 691.761,627.677 692.972,610.948C693.679,601.186 693.625,590.677 692.413,581.59C691.266,572.986 686.826,565.035 685.703,556.427C683.373,538.579 680.064,495.429 678.433,474.506C677.302,459.987 675.514,445.446 675.917,430.889C676.336,415.756 686.495,383.042 680.95,383.706C675.404,384.37 648.799,414.475 642.645,434.872C633.465,465.301 627.92,528.303 625.87,566.281C624.134,598.422 626.898,630.738 630.343,662.741C634.351,699.974 644.509,760.599 649.915,789.677C652.914,805.814 657.493,821.668 662.776,837.208C668.368,853.658 676.054,871.536 683.466,888.374C691.015,905.523 701.593,930.919 708.07,940.099C710.885,944.089 720.652,945.178 722.33,943.454C724.007,941.73 718.974,933.296 718.136,929.754C717.552,927.29 717.819,924.682 717.297,922.205C716.039,916.24 712.525,903.445 710.587,893.966C708.117,881.885 705.06,864.491 702.478,849.722Z" style="fill:rgb(255,231,209);"/>
            <path d="M1108.63,832.849C1106.39,833.172 1111.83,849.332 1110.24,857.27C1108.64,865.208 1095.28,874.279 1099.05,880.477C1102.83,886.674 1124.08,890.449 1132.88,894.456C1139.41,897.426 1147.98,906.293 1151.9,904.522C1155.81,902.751 1156.18,889.424 1156.37,883.832C1156.52,879.404 1155.15,874.851 1153.02,870.97C1150.5,866.404 1146,860.491 1141.27,856.432C1133.88,850.078 1113.75,832.111 1108.63,832.849Z" style="fill:rgb(245,152,112);"/>
            <path d="M787.381,867.004C786.623,865.385 771.715,880.303 766.921,886.456C762.959,891.541 759.954,898.934 758.618,903.92C757.543,907.931 757.772,912.379 758.904,916.375C760.073,920.502 763.103,925.942 765.632,928.686C767.758,930.992 771.436,934.529 774.078,932.837C776.798,931.096 780.806,923.485 781.952,918.236C783.097,912.987 780.729,906.38 780.95,901.344C781.147,896.84 782.446,892.451 783.276,888.02C784.347,882.297 788.532,869.463 787.381,867.004Z" style="fill:rgb(245,152,112);"/>
            <path d="M891.727,1129.03C900.951,1124.88 917.479,1123.52 923.747,1116.64C930.014,1109.77 931.148,1097.4 929.331,1087.77C927.391,1077.48 915.546,1062.98 912.105,1054.93C910.03,1050.08 906.321,1041.17 908.682,1039.47C911.042,1037.78 920.343,1043.22 926.268,1044.76C933.93,1046.75 946.061,1050.52 954.653,1051.41C962.347,1052.21 971.577,1050.84 977.823,1050.11C982.668,1049.55 990.124,1045.68 992.133,1047.07C994.141,1048.46 991.163,1054.8 989.873,1058.45C987.581,1064.93 978.333,1076 978.382,1085.93C978.431,1095.95 982.103,1111.23 990.168,1118.57C998.234,1125.9 1022.26,1124.37 1026.77,1129.95C1031.28,1135.54 1024.97,1149.95 1017.22,1152.08C999.541,1156.94 945.492,1160.88 920.689,1159.12C902.345,1157.81 873.228,1146.53 868.401,1141.52C863.574,1136.5 883.682,1132.64 891.727,1129.03Z" style="fill:rgb(245,152,112);"/>
            <g id="Eyes">
                <path d="M726.38,667.032C729.064,669.965 734.852,675.128 740.099,677.47C745.666,679.956 753.069,681.491 759.782,681.944C768.63,682.54 782.495,683.24 793.184,681.049C803.873,678.858 814.618,673.321 823.917,668.796C832.655,664.544 848.483,660.057 848.978,653.898C849.473,647.739 836.239,636.4 826.885,631.841C816.691,626.872 801.064,623.21 787.816,624.086C774.296,624.981 754.861,632.934 745.765,637.209C740.421,639.72 736.868,645.957 733.239,649.735C730.071,653.033 725.137,656.992 723.994,659.874C723.067,662.212 724.682,665.177 726.38,667.032Z" style="fill:white;"/>
                <path d="M1102.86,652.861C1114.17,650.225 1130.12,644.318 1137.34,640.279C1141.6,637.899 1149.28,632.413 1146.2,628.629C1141.46,622.805 1122.87,609.802 1108.92,605.33C1094.86,600.825 1075.21,599.427 1061.85,601.602C1049.65,603.589 1036.77,612.786 1028.77,618.378C1022.63,622.664 1016.51,631.209 1013.86,635.153C1012.56,637.079 1011.35,640.253 1012.83,642.044C1014.55,644.129 1020.29,646.035 1024.19,647.663C1028.63,649.516 1034.14,652.171 1039.46,653.16C1047.01,654.565 1059.44,656.139 1069.51,656.092C1080.08,656.042 1091.98,655.396 1102.86,652.861Z" style="fill:white;"/>
                <g transform="matrix(0.977877,0,0,1.09062,27.3103,-41.3618)">
                    <ellipse cx="780.566" cy="635.583" rx="30.196" ry="26.095" style="fill:rgb(7,14,49);"/>
                </g>
                <g transform="matrix(1,0,0,1.09062,298.818,-65.2438)">
                    <ellipse cx="780.566" cy="635.583" rx="30.196" ry="26.095" style="fill:rgb(7,14,49);"/>
                </g>
                <path d="M722.029,662.742C724.854,664.778 731.189,672.413 736.564,675.538C741.939,678.663 748.101,680.677 754.277,681.493C762.37,682.562 775.578,683.122 785.121,681.951C794.205,680.837 803.826,677.228 811.537,674.469C818.387,672.019 826.19,667.969 831.388,665.399C835.271,663.479 840.206,660.105 842.725,659.047C843.887,658.559 847.147,657.963 846.505,659.047C845.735,660.345 841.45,664.992 838.106,666.834C831.871,670.27 819.128,676.365 809.094,679.661C799.061,682.956 788.519,685.947 777.906,686.608C767.294,687.27 753.329,685.272 745.42,683.631C740.046,682.515 734.477,679.203 730.456,676.759C727.031,674.678 723.101,671.212 721.294,668.972C720.061,667.443 719.492,664.36 719.615,663.322C719.712,662.5 721.358,662.259 722.029,662.742Z" style="fill:rgb(245,152,112);"/>
                <path d="M1013.83,642.278C1016.53,644.091 1023.54,647.396 1028.72,649.149C1034.73,651.185 1042.71,653.377 1049.9,654.493C1057.7,655.702 1066.93,656.62 1075.48,656.402C1084.2,656.179 1094.15,654.78 1102.2,653.157C1109.56,651.674 1117.57,649.022 1123.77,646.668C1129.2,644.608 1135.83,641.26 1139.42,639.033C1141.76,637.587 1143.85,634.166 1145.34,633.307C1146.24,632.791 1148.52,632.957 1148.39,633.879C1148.27,634.802 1146.36,637.758 1144.58,638.842C1139.14,642.15 1126.01,650.292 1115.76,653.73C1105.13,657.293 1092.44,659.551 1080.83,660.219C1069.24,660.886 1056.65,659.647 1046.09,657.738C1036.25,655.959 1023.66,651.089 1017.46,648.767C1014.36,647.608 1010.43,645.713 1008.87,643.805C1007.49,642.118 1007.5,638.238 1008.11,637.315C1008.71,636.392 1011.54,637.442 1012.5,638.269C1013.45,639.096 1012.66,641.493 1013.83,642.278Z" style="fill:rgb(245,152,112);"/>
                <path d="M723.796,663.202C729.768,658.597 743.321,646.302 751.472,640.775C758.037,636.323 765.549,632.225 772.707,630.038C779.67,627.911 787.165,627.023 794.418,627.652C802.212,628.328 812.63,631.112 819.47,634.094C825.478,636.714 831.081,641.649 835.455,645.546C839.371,649.035 842.811,655.209 845.714,657.476C847.645,658.983 851.639,659.862 852.872,659.146C854.105,658.43 854.043,654.939 853.11,653.181C851.043,649.284 845.557,640.819 840.465,635.764C834.938,630.277 827.869,623.534 819.947,620.256C811.875,616.916 801.457,615.535 792.032,615.723C782.051,615.922 769.128,618.268 760.062,621.449C751.851,624.33 743.679,630.237 737.634,634.81C732.387,638.78 727.57,644.162 723.796,648.887C720.308,653.253 716.351,659.903 714.992,663.155C714.313,664.781 714.175,668.393 715.642,668.401C717.11,668.408 721.244,665.17 723.796,663.202Z" style="fill:rgb(4,7,25);"/>
                <g transform="matrix(-1.05612,0.147191,0.138035,0.990427,1816.73,-133.388)">
                    <path d="M727.997,663.541C733.889,659.013 744.577,647.85 751.872,642.45C758.003,637.911 764.684,633.446 771.767,631.142C778.849,628.837 786.834,627.768 794.364,628.624C801.972,629.488 810.952,633.481 817.412,636.327C822.993,638.786 828.45,642.212 833.126,645.7C837.643,649.07 841.989,655.149 845.467,657.255C847.918,658.739 852.73,659.507 853.994,658.337C855.257,657.167 854.416,652.586 853.049,650.235C850.891,646.523 845.678,640.171 841.047,636.063C835.647,631.274 828.367,624.702 820.652,621.5C812.483,618.11 801.764,615.673 792.032,615.723C782.183,615.774 770.409,618.624 761.554,621.805C753.359,624.75 745.063,630.224 738.9,634.815C733.446,638.878 728.564,644.625 724.58,649.348C720.967,653.631 716.334,659.777 714.992,663.155C714.174,665.213 714.357,669.554 716.524,669.619C718.692,669.683 724.566,666.178 727.997,663.541Z" style="fill:rgb(4,7,25);"/>
                </g>
            </g>
            <g id="Mouth">
                <path d="M800.187,919.853C800.528,921.251 804.69,926.395 807.776,928.796C814.136,933.746 828.146,944.016 838.35,949.553C848.044,954.814 866.468,963.206 869,962.023C871.532,960.839 857.572,947.311 853.54,942.451C850.779,939.123 847.456,935.269 844.807,932.86C842.673,930.918 840.131,929.465 837.65,927.993C834.715,926.251 831.042,923.323 827.199,922.41C821.879,921.145 810.229,920.832 805.727,920.405C803.879,920.231 799.845,918.454 800.187,919.853Z" style="fill:rgb(77,14,10);"/>
                <path d="M1061.76,956.125C1064.89,951.554 1073.1,939.833 1078.79,933.475C1083.92,927.742 1090.5,923.388 1095.9,917.979C1101.28,912.59 1112.84,903.374 1111.21,901.017C1109.57,898.661 1092.6,902.525 1086.08,903.84C1081.23,904.82 1075.16,905.294 1072.11,908.906C1069.06,912.518 1070.57,920.526 1067.76,925.512C1064.11,931.982 1053.38,942.022 1050.24,947.729C1048.29,951.261 1047.24,957.559 1048.86,959.754C1050.48,961.949 1057.82,961.504 1059.97,960.899C1061.61,960.439 1060.8,957.526 1061.76,956.125Z" style="fill:rgb(77,14,10);"/>
                <path d="M837.482,928.342C836.9,933.173 843.622,946.754 850.097,953.573C861.907,966.009 892.909,993.924 908.343,1002.96C918.323,1008.8 931.312,1009.81 942.699,1007.79C960.37,1004.66 994.011,995.713 1014.37,984.172C1034.09,972.986 1054.99,948.92 1064.83,938.542C1069.12,934.012 1071.94,927.134 1073.42,921.9C1074.75,917.163 1078.6,907.007 1073.68,907.137C1058.47,907.54 1010.92,921.676 982.156,924.316C955.245,926.785 922.524,922.929 901.095,922.974C885.25,923.007 864.189,923.689 853.587,924.584C848.094,925.048 838.064,923.511 837.482,928.342Z" style="fill:rgb(251,248,234);"/>
                <path d="M801.149,921.819C804.991,923.355 815.922,925.154 823.418,926.158C838.835,928.223 873.745,932.57 893.652,934.21C910.01,935.558 926.462,936.702 942.861,936C960.27,935.254 979.862,932.989 998.109,929.737C1020.07,925.822 1055.52,917.136 1074.61,912.514C1087.39,909.418 1105.77,904.983 1112.63,902.001C1115.08,900.935 1118.16,895.792 1115.76,894.62C1109.35,891.488 1088.52,883.841 1074.16,883.212C1056.26,882.429 1030.42,889.107 1008.4,889.922C980.214,890.966 932.944,887.984 905.059,889.475C883.538,890.626 857.693,895.054 841.088,898.869C828.702,901.716 812.218,909.356 805.431,912.368C803.353,913.29 801.081,915.364 800.368,916.939C799.688,918.44 799.62,921.207 801.149,921.819Z" style="fill:rgb(237,134,91);"/>
                <g transform="matrix(1,0,0,1,0,-5.02773)">
                    <path d="M837.869,954.614C840.301,958.271 847.394,969.78 853.481,976.273C860.077,983.309 869.056,991.225 877.448,996.832C885.611,1002.29 894.394,1007.22 903.834,1009.92C915.964,1013.38 935.293,1017.75 950.229,1017.61C964.913,1017.48 979.502,1013.68 993.452,1009.09C1007.67,1004.42 1024.28,996.602 1035.54,989.552C1045.18,983.511 1053.99,974.234 1060.98,966.79C1067.23,960.129 1074.53,949.72 1077.45,944.888C1078.69,942.845 1080.03,938.053 1078.53,937.802C1077.02,937.552 1071.77,941.476 1068.43,943.385C1060.49,947.93 1044.14,959.361 1030.86,965.073C1015.29,971.765 994.451,980.901 975.028,983.539C953.949,986.402 924.065,985.508 904.382,982.251C887.661,979.484 867.842,968.651 856.927,963.999C850.653,961.325 842.069,955.901 838.893,954.337C838.576,954.181 837.673,954.32 837.869,954.614Z" style="fill:rgb(237,134,91);"/>
                </g>
            </g>
            <g id="Nose">
                <path d="M919.81,834.464C914.179,833.462 908.518,828.757 904.713,826.312C901.878,824.489 900.003,821.291 896.984,819.79C893.482,818.049 887.373,815.966 883.699,815.865C880.579,815.779 876.755,817.526 874.943,819.186C873.23,820.756 872.93,823.514 872.83,825.829C872.729,828.143 873.099,830.942 874.339,833.075C875.879,835.722 879.077,839.266 882.069,841.71C885.923,844.86 892.888,849.661 897.467,851.976C901.218,853.872 905.427,854.754 909.544,855.599C917.395,857.209 935.007,861.336 944.568,861.638C952.144,861.877 959.44,858.686 966.911,857.411C975.164,856.002 988.147,855.951 994.085,853.184C998.614,851.073 1000.25,845.248 1002.54,840.804C1005.21,835.621 1009.28,827.922 1010.09,822.085C1010.84,816.627 1011.95,808.397 1007.37,805.78C1002.79,803.164 989.449,805.396 982.612,806.384C976.964,807.201 971.205,808.935 966.344,811.71C961.483,814.486 957.779,819.548 953.445,823.039C949.226,826.437 945.471,830.91 940.341,832.652C934.735,834.556 925.748,835.521 919.81,834.464Z" style="fill:rgb(237,134,91);"/>
                <path d="M958.552,818.537C959.899,815.332 971.515,806.844 974.037,798.953C976.558,791.062 974.734,780.387 973.678,771.193C972.457,760.553 968.88,746.487 966.706,735.111C964.657,724.39 961.943,713.77 960.634,702.933C959.18,690.888 955.192,668.732 957.977,662.837C960.763,656.942 975.145,662.884 977.346,667.562C979.548,672.24 970.598,682.879 971.187,690.905C972.06,702.802 977.954,725.168 982.585,738.942C986.652,751.041 993.681,761.935 998.972,773.551C1004.37,785.399 1013.89,796.397 1014.97,810.032C1015.73,819.68 1010.16,837.501 1001.59,845.69C993.025,853.879 967.252,858.596 963.569,859.165C959.885,859.735 974.552,852.983 979.491,849.107C984.786,844.953 993.295,838.933 995.337,834.238C997.168,830.025 994.401,824.054 991.742,820.933C989.084,817.813 983.683,815.972 979.385,815.513C975.087,815.054 969.427,817.676 965.955,818.18C963.51,818.535 957.595,820.814 958.552,818.537Z" style="fill:rgb(245,152,112);"/>
                <path d="M900.297,753.977C901.13,765.513 900.014,779.83 897.906,788.592C896.293,795.295 891.747,801.015 887.647,806.55C883.548,812.086 875.322,816.964 873.308,821.805C871.519,826.104 872.779,831.859 875.564,835.592C879.343,840.657 893.94,846.796 895.98,852.194C898.021,857.591 890.426,865.976 887.805,867.978C885.57,869.686 882.257,866.183 880.257,864.204C877.842,861.814 876.05,856.842 873.313,853.636C870.073,849.842 864.183,846.187 860.818,841.437C857.333,836.518 854.133,830.229 852.404,824.123C850.675,818.016 849.804,811.242 850.441,804.799C851.121,797.93 854.238,790.139 856.48,782.909C858.833,775.323 862.154,766.24 864.557,759.283C866.645,753.236 869.491,747.409 870.897,741.167C873.288,730.558 876.054,707.455 878.9,695.628C881.006,686.88 885.703,667.072 887.978,670.206C890.254,673.34 890.499,700.47 892.552,714.432C894.506,727.721 899.405,741.617 900.297,753.977Z" style="fill:rgb(255,231,209);"/>
            </g>
            <g id="Beard">
                <path d="M643.406,726.52C647.614,744.05 651.182,788.206 657.036,809.875C661.502,826.406 670.928,841.854 678.53,856.532C685.876,870.718 693.387,884.929 702.645,897.947C713.829,913.675 731.84,932.824 745.633,950.896C761.972,972.302 783.553,1004.37 800.678,1026.39C815.83,1045.87 829.769,1066.8 848.384,1083.01C867.257,1099.43 888.946,1117.93 913.914,1124.94C939.428,1132.11 973.916,1135.63 1001.46,1125.99C1029.42,1116.21 1060.7,1087.9 1081.67,1066.23C1101.09,1046.17 1114.96,1016.25 1127.28,995.981C1137.44,979.272 1145.72,961.483 1155.59,944.605C1166.42,926.082 1179.7,900.831 1192.29,884.841C1203.22,870.947 1219.76,862.251 1231.08,848.669C1243.31,833.99 1256.96,815.066 1265.68,796.769C1274.36,778.554 1279.81,758.744 1283.38,738.887C1287.12,718.156 1285.25,684.45 1288.1,672.378C1289.14,667.933 1296.71,664.653 1300.45,666.458C1304.19,668.263 1310.84,676.696 1310.55,683.207C1309.63,703.505 1300.4,753.27 1294.97,788.248C1288.44,830.306 1287.46,892.135 1271.38,935.559C1255.8,977.653 1225.64,1013.04 1198.51,1048.8C1169.94,1086.45 1137.7,1134.25 1099.95,1161.51C1062.76,1188.37 1012.58,1210.96 972.039,1212.36C931.498,1213.76 889.584,1194.34 856.706,1169.89C817.213,1140.54 765.051,1076.49 735.082,1036.21C710.673,1003.41 692.486,966.021 676.891,928.22C660.814,889.251 644.213,826.342 638.621,802.402C637.223,796.417 643.863,790.701 643.34,784.578C642.379,773.349 634.785,748.34 632.859,735.026C631.411,725.014 630.027,706.114 631.785,704.696C633.543,703.278 641.482,718.506 643.406,726.52Z" style="fill:rgb(109,75,73);"/>
                <clipPath id="_clip1">
                    <path d="M643.406,726.52C647.614,744.05 651.182,788.206 657.036,809.875C661.502,826.406 670.928,841.854 678.53,856.532C685.876,870.718 693.387,884.929 702.645,897.947C713.829,913.675 731.84,932.824 745.633,950.896C761.972,972.302 783.553,1004.37 800.678,1026.39C815.83,1045.87 829.769,1066.8 848.384,1083.01C867.257,1099.43 888.946,1117.93 913.914,1124.94C939.428,1132.11 973.916,1135.63 1001.46,1125.99C1029.42,1116.21 1060.7,1087.9 1081.67,1066.23C1101.09,1046.17 1114.96,1016.25 1127.28,995.981C1137.44,979.272 1145.72,961.483 1155.59,944.605C1166.42,926.082 1179.7,900.831 1192.29,884.841C1203.22,870.947 1219.76,862.251 1231.08,848.669C1243.31,833.99 1256.96,815.066 1265.68,796.769C1274.36,778.554 1279.81,758.744 1283.38,738.887C1287.12,718.156 1285.25,684.45 1288.1,672.378C1289.14,667.933 1296.71,664.653 1300.45,666.458C1304.19,668.263 1310.84,676.696 1310.55,683.207C1309.63,703.505 1300.4,753.27 1294.97,788.248C1288.44,830.306 1287.46,892.135 1271.38,935.559C1255.8,977.653 1225.64,1013.04 1198.51,1048.8C1169.94,1086.45 1137.7,1134.25 1099.95,1161.51C1062.76,1188.37 1012.58,1210.96 972.039,1212.36C931.498,1213.76 889.584,1194.34 856.706,1169.89C817.213,1140.54 765.051,1076.49 735.082,1036.21C710.673,1003.41 692.486,966.021 676.891,928.22C660.814,889.251 644.213,826.342 638.621,802.402C637.223,796.417 643.863,790.701 643.34,784.578C642.379,773.349 634.785,748.34 632.859,735.026C631.411,725.014 630.027,706.114 631.785,704.696C633.543,703.278 641.482,718.506 643.406,726.52Z"/>
                </clipPath>
                <g clip-path="url(#_clip1)">
                    <g transform="matrix(1,0,0,1,-10.0555,26.647)">
                        <path d="M1294.26,676.842C1284.96,674.703 1259.47,685.538 1247.88,697.958C1230.34,716.75 1202,765.581 1189.05,789.589C1180.24,805.931 1171.02,829.874 1170.2,842.003C1169.64,850.212 1177.36,860.417 1184.15,862.365C1190.94,864.314 1203.58,853.8 1210.92,853.693C1217.28,853.6 1225.29,856.085 1228.23,861.721C1232.07,869.057 1233.75,885.564 1233.95,897.708C1234.15,910.579 1232.32,925.417 1229.47,938.947C1226.23,954.33 1221.5,973.71 1214.5,990.004C1205.92,1009.96 1184.24,1045.83 1178,1058.67C1176.77,1061.21 1176.08,1066.58 1177.08,1067.08C1178.09,1067.58 1182.24,1063.99 1184.04,1061.67C1189.83,1054.21 1202.67,1035.49 1211.84,1022.28C1221.68,1008.1 1235.16,989.303 1243.11,976.529C1249.27,966.629 1255.78,956.681 1259.52,945.639C1266.26,925.75 1277.92,887.222 1283.56,857.199C1290.92,818.057 1301.89,740.85 1303.67,710.791C1304.37,699.068 1303.56,678.981 1294.26,676.842Z" style="fill:rgb(90,58,56);"/>
                    </g>
                </g>
                <path d="M948.631,909.831C953.347,908.978 958.993,905.63 964.481,905.158C990.44,902.925 1078.44,897.665 1104.39,896.434C1109.66,896.185 1116.95,893.586 1120.16,897.777C1123.79,902.53 1124.46,917.963 1126.2,924.953C1127.43,929.933 1128.77,938.318 1130.56,939.716C1132.35,941.114 1135.45,935.955 1136.93,933.341C1139.28,929.203 1143.17,921.389 1144.65,914.888C1146.33,907.506 1148.45,896.323 1147,889.053C1145.63,882.206 1141.15,875.906 1135.93,871.271C1130.45,866.406 1122.04,861.996 1114.12,859.863C1101.04,856.34 1076.49,852.103 1057.42,850.133C1035.22,847.841 1006.45,845.809 980.921,846.107C952.234,846.443 915.104,847.114 885.299,852.147C856.821,856.955 820.102,869.99 802.092,876.304C793.161,879.434 783.3,885.374 777.239,890.027C772.408,893.738 768.062,898.596 765.73,904.224C762.028,913.159 764.364,932.332 769.337,941.734C773.222,949.077 780.457,959.812 783.492,962.245C785.356,963.74 787.18,958.696 787.546,956.336C788.193,952.173 786.63,942.851 787.375,937.268C788.042,932.26 789.493,926.102 792.013,922.838C794.391,919.757 798.63,918.173 802.492,917.685C822.848,915.108 891.869,908.612 914.151,907.378C921.546,906.968 930.435,909.868 936.182,910.276C940.324,910.571 944.545,910.57 948.631,909.831Z" style="fill:rgb(109,75,73);"/>
                <clipPath id="_clip2">
                    <path d="M948.631,909.831C953.347,908.978 958.993,905.63 964.481,905.158C990.44,902.925 1078.44,897.665 1104.39,896.434C1109.66,896.185 1116.95,893.586 1120.16,897.777C1123.79,902.53 1124.46,917.963 1126.2,924.953C1127.43,929.933 1128.77,938.318 1130.56,939.716C1132.35,941.114 1135.45,935.955 1136.93,933.341C1139.28,929.203 1143.17,921.389 1144.65,914.888C1146.33,907.506 1148.45,896.323 1147,889.053C1145.63,882.206 1141.15,875.906 1135.93,871.271C1130.45,866.406 1122.04,861.996 1114.12,859.863C1101.04,856.34 1076.49,852.103 1057.42,850.133C1035.22,847.841 1006.45,845.809 980.921,846.107C952.234,846.443 915.104,847.114 885.299,852.147C856.821,856.955 820.102,869.99 802.092,876.304C793.161,879.434 783.3,885.374 777.239,890.027C772.408,893.738 768.062,898.596 765.73,904.224C762.028,913.159 764.364,932.332 769.337,941.734C773.222,949.077 780.457,959.812 783.492,962.245C785.356,963.74 787.18,958.696 787.546,956.336C788.193,952.173 786.63,942.851 787.375,937.268C788.042,932.26 789.493,926.102 792.013,922.838C794.391,919.757 798.63,918.173 802.492,917.685C822.848,915.108 891.869,908.612 914.151,907.378C921.546,906.968 930.435,909.868 936.182,910.276C940.324,910.571 944.545,910.57 948.631,909.831Z"/>
                </clipPath>
                <g clip-path="url(#_clip2)">
                    <g transform="matrix(1,0,0,1,2.03624,-13.2733)">
                        <path d="M874.317,854.299C874.317,854.299 888.948,862.966 897.056,865.163C906.557,867.738 919.801,869.669 931.325,869.748C943.07,869.829 956.118,869.811 967.525,865.646C979.31,861.342 1004.49,849.436 1002.04,843.926C999.582,838.415 963.583,833.508 952.804,832.583C947.325,832.113 942.772,837.414 937.358,838.375C928.751,839.904 910.45,840.628 901.159,841.754C894.594,842.55 886.719,844.61 881.611,845.132C877.929,845.509 871.725,843.363 870.509,844.891C869.294,846.419 874.317,854.299 874.317,854.299Z" style="fill:rgb(90,58,56);"/>
                    </g>
                </g>
                <path d="M764.647,530.912C778.214,530.214 800.939,528.899 815.31,531.248C827.854,533.298 842.151,538.965 850.874,545.004C858.562,550.326 864.868,561.343 867.65,567.484C869.626,571.845 870.853,579.273 867.569,581.848C864.284,584.423 854.486,583.28 847.944,582.934C840.15,582.523 829.854,580.541 820.805,579.378C808.188,577.756 787.075,573.454 772.244,573.204C758.681,572.976 744.897,574.537 731.819,577.881C718.742,581.226 703.853,588.294 693.779,593.273C685.808,597.214 675.799,605.745 671.379,607.758C669.931,608.417 667.426,606.935 667.256,605.353C666.884,601.889 666.99,592.742 669.146,586.972C671.894,579.614 678.308,567.933 683.747,561.205C688.611,555.189 694.904,550.138 701.785,546.603C710.145,542.309 723.431,538.052 733.908,535.437C743.957,532.929 754.304,531.445 764.647,530.912Z" style="fill:rgb(62,36,50);"/>
                <g transform="matrix(-1.03617,0.201018,0.19045,0.981697,1762.57,-173.942)">
                    <path d="M765.723,531.13C780.675,530.075 808.772,528.863 823.132,530.959C833.504,532.473 844.459,537.617 851.879,543.705C859.232,549.737 865.035,561.126 867.65,567.484C869.472,571.912 870.701,579.012 867.569,581.848C864.436,584.684 855.145,584.83 848.853,584.498C841.059,584.086 830.252,580.418 820.805,579.378C809.184,578.099 793.037,576.348 779.127,576.826C765.19,577.305 749.778,579.297 737.182,582.252C725.559,584.978 713.241,589.762 703.548,594.554C694.723,598.917 686.653,606.73 679.022,611.005C672.284,614.779 660.959,623.27 657.759,620.203C654.558,617.136 656.626,601.257 659.819,592.601C663.155,583.555 670.951,573.194 677.777,565.927C684.294,558.989 692.31,553.354 700.774,548.997C710.048,544.224 722.594,540.265 733.419,537.287C743.988,534.38 754.789,531.901 765.723,531.13Z" style="fill:rgb(62,36,50);"/>
                </g>
                <path d="M964.258,1081.25C970.148,1079.69 977.606,1076.96 983.032,1072.75C989.385,1067.82 998.567,1058.96 1002.38,1051.64C1005.94,1044.81 1008.25,1033.07 1005.9,1028.81C1003.56,1024.54 994.236,1026.09 988.295,1026.05C981.414,1025.99 971.619,1027.96 964.619,1028.48C958.524,1028.93 950.289,1028.56 946.296,1029.15C944.208,1029.46 941.55,1030.12 940.661,1032.04C939.47,1034.6 939.589,1040.37 939.149,1044.54C938.691,1048.9 937.934,1053.6 937.913,1058.15C937.89,1062.98 938.602,1069.78 939.012,1073.54C939.276,1075.96 938.927,1079.3 940.373,1080.73C941.82,1082.15 945.211,1082.02 947.691,1082.08C951.672,1082.16 958.912,1082.66 964.258,1081.25Z" style="fill:rgb(109,75,73);"/>
                <g transform="matrix(-1,0,0,1,1904.22,0.137427)">
                    <path d="M964.258,1081.25C970.148,1079.69 977.606,1076.96 983.032,1072.75C989.385,1067.82 998.567,1058.96 1002.38,1051.64C1005.94,1044.81 1008.25,1033.07 1005.9,1028.81C1003.56,1024.54 994.236,1026.09 988.295,1026.05C981.414,1025.99 971.619,1027.96 964.619,1028.48C958.524,1028.93 950.289,1028.56 946.296,1029.15C944.208,1029.46 941.55,1030.12 940.661,1032.04C939.47,1034.6 939.589,1040.37 939.149,1044.54C938.691,1048.9 937.934,1053.6 937.913,1058.15C937.89,1062.98 938.602,1069.78 939.012,1073.54C939.276,1075.96 938.927,1079.3 940.373,1080.73C941.82,1082.15 945.211,1082.02 947.691,1082.08C951.672,1082.16 958.912,1082.66 964.258,1081.25Z" style="fill:rgb(109,75,73);"/>
                </g>
            </g>
            <g id="Ears">
                <path d="M634.251,758.655C632.994,745.382 636.514,703.049 630.933,690.479C626.737,681.028 607.856,681.731 600.767,683.239C594.098,684.658 589.497,692.801 588.398,699.529C586.789,709.384 588.798,728.247 591.113,742.366C593.677,758.002 600.113,779.873 603.783,793.347C606.525,803.412 611.073,813.508 613.135,823.212C615.11,832.51 615.122,842.119 616.151,851.568C617.258,861.724 617.408,875.048 619.771,884.148C621.817,892.027 624.447,901.946 630.33,906.169C636.212,910.393 649.083,909.739 655.066,909.488C659.116,909.318 666.139,908.714 666.228,904.661C666.429,895.46 659.893,870.322 656.273,854.283C652.799,838.891 647.474,822.458 644.508,808.43C641.833,795.782 640.184,778.414 638.475,770.119C637.653,766.13 634.635,762.709 634.251,758.655Z" style="fill:rgb(255,231,209);"/>
                <path d="M1372.43,820.428C1376.83,793.796 1385.15,736.606 1385.62,706.832C1385.97,684.879 1382.33,653.491 1375.26,641.786C1369.66,632.522 1352.87,634.48 1343.2,636.601C1333.54,638.722 1320.6,644.548 1317.28,654.512C1311.07,673.13 1310.05,717.202 1305.97,748.311C1301.9,779.308 1293.48,821.213 1292.77,841.167C1292.43,850.601 1295.68,861.985 1301.73,868.034C1307.77,874.083 1319.48,877.697 1329.06,877.461C1338.65,877.225 1352.76,875.126 1359.23,866.62C1366.46,857.114 1369.82,836.227 1372.43,820.428Z" style="fill:rgb(245,152,112);"/>
                <path d="M1377.32,662.606C1373.75,661.995 1369.12,660.94 1365.74,662.799C1360.17,665.856 1350.49,674.93 1343.92,680.947C1337.75,686.606 1330.44,693.368 1326.35,698.902C1323.04,703.397 1319.91,708.59 1319.4,714.155C1318.73,721.588 1320.64,733.812 1322.3,743.5C1324.16,754.37 1327.73,770.618 1330.56,779.371C1332.49,785.331 1337.03,792.307 1339.29,796.014C1340.57,798.118 1342.77,800.68 1344.12,801.613C1345.02,802.235 1347.25,802.697 1347.4,801.613C1347.94,797.655 1348.44,785.713 1347.4,777.866C1346.27,769.371 1341.54,756.629 1340.64,750.644C1340.2,747.746 1340.97,744.703 1341.99,741.956C1343.44,738.062 1346.4,731.9 1349.33,727.283C1352.74,721.909 1357.06,714.641 1362.46,709.714C1367.96,704.694 1378.22,701.541 1382.34,697.165C1385.66,693.637 1386.42,688.243 1387.17,683.457C1387.97,678.341 1388.81,669.943 1387.17,666.467C1385.66,663.279 1380.8,663.201 1377.32,662.606Z" style="fill:rgb(212,104,81);"/>
                <path d="M1289.47,849.549C1293.59,852.006 1301.98,860.087 1307.81,863.305C1312.93,866.132 1318.62,869.137 1324.46,868.856C1331.14,868.534 1342.08,867.086 1347.87,861.375C1353.66,855.663 1356.74,843.962 1359.21,834.587C1361.83,824.692 1362.51,811.539 1363.56,802.007C1364.45,793.825 1364.45,785.556 1365.49,777.391C1366.89,766.29 1370.72,749.506 1372,735.399C1373.41,719.914 1373.77,696.907 1373.93,684.478C1374.04,676.589 1374.66,667.223 1372.97,660.828C1371.49,655.238 1369.03,648.279 1363.8,646.107C1358.57,643.935 1348.7,645.646 1341.6,647.796C1333.75,650.169 1321.44,659.943 1316.74,660.345C1313.19,660.648 1311.51,653.254 1313.36,650.209C1315.53,646.629 1324.66,643.116 1329.77,638.867C1335,634.523 1339.38,627.084 1344.73,624.145C1349.81,621.356 1357.16,620.95 1361.86,621.232C1365.86,621.471 1369.98,623.164 1372.97,625.835C1377.15,629.573 1383.72,637.971 1386.96,643.66C1389.8,648.641 1391.77,654.274 1392.4,659.971C1393.49,669.897 1393.33,689.893 1393.51,703.217C1393.68,715.449 1394.5,727.722 1393.51,739.915C1392.51,752.298 1389.09,767.131 1387.51,777.517C1386.26,785.741 1384.68,794.764 1384.04,802.229C1383.46,808.898 1384.92,815.736 1383.65,822.308C1381.75,832.09 1378.08,850.56 1372.64,860.921C1367.69,870.358 1359.58,879.841 1351.02,884.475C1342.46,889.108 1330.56,889.913 1321.29,888.722C1312.02,887.532 1301.79,884.024 1295.42,877.331C1289.05,870.638 1284.05,853.195 1283.06,848.565C1282.61,846.452 1287.61,848.444 1289.47,849.549Z" style="fill:rgb(7,14,49);"/>
                <path d="M659.662,898.769C655.439,899.61 643.742,899.946 638.924,898.764C635.423,897.906 632.624,894.761 630.753,891.679C628.603,888.138 626.556,882.466 626.02,877.518C624.84,866.629 625.435,839.325 623.672,826.345C622.419,817.115 618.099,808.568 615.443,799.64C612.375,789.324 608.097,776.327 605.262,764.449C602.379,752.373 599.782,738.868 598.145,727.183C596.62,716.305 594.038,700.298 595.434,694.342C596.305,690.624 602.871,690.32 606.519,691.449C611.351,692.944 621.127,704.021 624.425,703.313C627.722,702.604 628.004,692.333 626.303,687.2C624.392,681.434 617.143,671.878 612.958,668.715C609.827,666.349 605.002,667.269 601.195,668.221C596.714,669.341 590.107,672.34 586.071,675.437C582.221,678.391 578.486,682.193 576.977,686.805C575.214,692.192 574.97,700.778 575.494,707.761C576.186,716.987 578.824,730.772 581.128,742.16C584.107,756.885 589.963,783.306 593.367,796.107C595.447,803.929 599.7,813.458 601.553,818.966C602.681,822.318 604.241,825.633 604.488,829.16C605.08,837.629 604.256,859.51 605.106,869.781C605.696,876.916 607.474,884.763 609.585,890.787C611.482,896.2 613.971,901.626 617.771,905.923C621.709,910.376 626.946,916.057 633.216,917.507C641.788,919.489 662.691,919 669.203,917.816C671.837,917.337 672.271,913.079 672.292,910.402C672.318,907.21 670.696,901.444 669.358,898.664C668.331,896.532 665.877,893.704 664.261,893.721C662.645,893.739 661.894,898.325 659.662,898.769Z" style="fill:rgb(7,14,49);"/>
            </g>
            <g id="Hair">
                <path d="M627.63,659.935C626.56,637.271 623.074,579.957 626.687,540.212C630.38,499.597 637.445,448.794 649.784,416.246C660.139,388.929 677.944,363.222 700.719,344.925C726.516,324.2 766.785,301.03 804.564,291.898C852.803,280.237 941.673,275.818 990.158,274.959C1025.48,274.333 1061.11,282.692 1095.48,286.742C1129.13,290.709 1175.02,299.999 1196.37,299.263C1207.06,298.894 1222.15,291.775 1223.62,282.324C1225.1,272.872 1215.88,252.534 1205.21,242.553C1188.03,226.473 1152.74,196.614 1120.52,185.844C1074.61,170.5 979.234,154.298 929.766,150.492C894.274,147.762 856.854,152.456 823.712,163.013C790.57,173.569 759.552,193.247 730.915,213.83C699.491,236.416 654.443,272.626 635.172,298.526C620.557,318.167 622.529,351.431 615.286,369.229C609.872,382.537 596.629,391.815 591.719,405.317C586.284,420.263 584.049,440.841 582.675,458.904C580.853,482.839 578.904,520.886 580.789,548.932C582.564,575.322 588.41,606.437 593.987,627.176C598.354,643.413 607.735,665.198 614.255,673.368C618.219,678.335 630.88,678.435 633.109,676.197C635.339,673.958 627.9,665.649 627.63,659.935Z" style="fill:rgb(62,36,50);"/>
                <path d="M946.474,271.248C929.568,266.597 906.206,251.746 884.915,245.161C862.526,238.236 835.329,231.774 812.138,229.7C790.081,227.728 767.454,228.883 745.772,232.717C724.09,236.551 693.358,250.566 682.045,252.702C679.334,253.215 675.647,247.135 677.897,245.538C683.742,241.39 703.42,232.087 717.114,227.815C739.676,220.776 788.696,207.453 813.27,203.305C830.126,200.459 847.573,200.95 864.553,202.928C886.675,205.504 923.44,211.601 946.002,218.765C965.182,224.856 986.601,237.996 999.925,245.915C1009.39,251.542 1028.21,261.752 1025.94,266.277C1023.68,270.802 999.595,272.236 986.35,273.065C973.105,273.893 959.303,274.777 946.474,271.248Z" style="fill:rgb(52,27,44);"/>
                <path d="M1116.92,291.362C1133.19,292.04 1180.56,289.083 1197.05,297.96C1211.83,305.91 1211.11,328.55 1215.91,344.624C1223.37,369.606 1227.69,421.612 1241.83,447.85C1254.49,471.343 1281.9,489.958 1300.75,502.056C1316.81,512.359 1344.59,523.188 1354.95,520.438C1365.33,517.689 1363.18,497.486 1362.97,485.558C1362.65,467.49 1361.68,435.213 1353.07,412.027C1343.56,386.417 1325.1,353.501 1305.93,331.898C1287.35,310.953 1255.27,297.096 1238.06,282.406C1224.78,271.068 1216.05,255.02 1202.71,243.755C1184.01,227.965 1153.37,200.548 1125.88,187.664C1098.51,174.842 1064.29,173.681 1037.74,166.453C1013.76,159.928 985.573,147.678 966.562,144.3C952.471,141.796 928.461,144.693 923.669,146.185C918.877,147.678 932.797,151.629 937.809,153.256C945.188,155.65 957.966,157.844 967.938,160.552C978.339,163.377 990.163,165.201 1000.22,170.205C1011.43,175.786 1024.66,184.664 1035.21,194.037C1046.02,203.64 1057.23,217.114 1065.07,227.823C1071.96,237.232 1078.3,248.286 1082.27,258.292C1086,267.679 1086.04,281.922 1088.91,287.855C1090.67,291.505 1095.44,293.385 1099.46,293.888C1104.13,294.472 1111.05,291.116 1116.92,291.362Z" style="fill:rgb(52,27,44);"/>
                <path d="M618.598,700.811C613.875,694.731 600.462,681.544 595.189,669.679C589.075,655.923 585.415,633.157 581.915,618.275C578.965,605.728 576.28,593.105 574.193,580.386C572.021,567.153 569.699,552.802 568.883,538.877C567.838,521.018 566.993,490.811 567.918,473.234C568.625,459.803 570.933,446.401 574.434,433.414C578.175,419.538 586.763,398.87 590.362,389.975C591.792,386.441 594.662,383.581 596.029,380.041C597.397,376.501 597.471,372.44 598.567,368.737C600.71,361.503 604.499,346.983 608.885,336.633C613.661,325.362 620.397,312.553 627.226,301.109C634.273,289.3 641.863,276.541 651.166,265.778C661.013,254.387 674.147,243.275 686.304,232.764C699.222,221.596 713.745,209.021 728.67,198.772C743.876,188.33 760.511,178.278 777.54,170.114C794.634,161.919 813.438,154.88 831.236,149.601C848.574,144.458 868.492,140.752 884.33,138.439C898.189,136.415 912.265,135.189 926.261,135.724C948.3,136.566 986.883,137.848 1016.56,143.492C1047.83,149.437 1087.33,161.529 1113.85,171.396C1135.5,179.452 1159.04,191.57 1175.69,202.694C1190.11,212.326 1204.66,226.764 1213.78,238.14C1221.44,247.703 1226.86,261.573 1230.37,270.946C1233.16,278.391 1236.63,288.218 1234.83,294.376C1233.04,300.533 1223.8,306.185 1219.58,307.891C1216.32,309.211 1211.02,307.803 1209.54,304.608C1207.93,301.133 1210.22,292.67 1209.93,287.039C1209.65,281.595 1209.57,275.98 1207.81,270.822C1205.78,264.901 1202.34,257.147 1197.77,251.515C1191.42,243.701 1180.65,231.212 1169.75,223.934C1155.34,214.309 1131.69,201.821 1111.3,193.767C1088.87,184.906 1061.06,176.348 1035.13,170.765C1007.87,164.896 974.495,160.144 947.737,158.548C923.379,157.095 898.644,157.136 874.583,161.188C850.324,165.273 824.179,173.694 802.183,183.058C781.096,192.035 761.243,204.037 742.604,217.373C720.293,233.336 686.154,259.817 668.319,278.837C654.183,293.912 644.561,312.874 635.593,331.492C625.966,351.48 616.689,382.574 610.555,398.763C606.764,408.769 601.448,418.264 598.79,428.628C595.321,442.153 590.7,462.579 589.74,479.911C588.684,498.967 590.241,522.041 592.455,542.959C594.918,566.238 600.499,599.471 604.521,619.582C607.507,634.509 612.968,653.872 616.588,663.626C618.606,669.064 624.275,672.648 626.241,678.106C628.705,684.943 631.822,699.976 631.37,704.652C631.113,707.302 625.655,706.801 623.526,706.16C621.398,705.52 620.085,702.726 618.598,700.811Z" style="fill:rgb(7,14,49);"/>
                <path d="M1320.24,658.675C1324.1,656.075 1331.27,651.535 1337.2,648.771C1344.37,645.431 1358.86,643.354 1363.27,638.635C1367.4,634.204 1363.17,626.503 1363.62,620.46C1364.4,609.909 1366.52,590.374 1367.96,575.331C1369.68,557.357 1373.3,533.607 1373.93,512.618C1374.62,489.911 1375.03,459.67 1372.05,439.087C1369.54,421.778 1362.93,404.757 1356.02,389.124C1349.19,373.671 1340.71,358.805 1330.57,345.288C1319.49,330.519 1301.11,311.351 1289.56,300.51C1281.11,292.572 1271.52,284.959 1261.28,280.241C1251.04,275.524 1234.82,270.79 1228.14,272.204C1222.3,273.442 1220.78,284.685 1221.21,288.726C1221.66,292.766 1227.05,294.852 1230.78,296.448C1234.52,298.044 1239.97,297.709 1243.6,298.301C1246.6,298.791 1249.86,298.602 1252.56,300C1256.83,302.214 1264.22,307.043 1269.24,311.584C1277.35,318.921 1291.44,332.407 1301.21,344.019C1311.07,355.725 1321.4,367.96 1328.38,381.817C1336.47,397.889 1345.8,420.844 1349.78,440.45C1353.7,459.741 1352.3,499.453 1352.3,499.453C1352.3,499.453 1333.29,494.64 1324.77,489.995C1315.9,485.156 1307.02,477.69 1299.07,470.422C1289.72,461.871 1276.86,448.803 1268.68,438.687C1261.44,429.751 1255.12,419.995 1249.95,409.727C1244.18,398.259 1238.07,378.197 1234.04,369.878C1232.14,365.968 1227.96,360.827 1225.75,359.817C1223.82,358.933 1220.9,361.693 1220.78,363.815C1220.65,366.155 1224.21,370.308 1224.95,373.855C1228.63,391.488 1234.04,444.568 1242.87,469.616C1250.05,489.994 1268.89,504.512 1277.93,524.137C1287.36,544.607 1294.83,572.019 1299.44,592.436C1303.44,610.174 1304.13,634.549 1305.57,646.642C1306.29,652.771 1306.62,662.036 1308.04,664.991C1308.91,666.812 1312.27,665.301 1314.06,664.374C1316.1,663.321 1317.92,660.242 1320.24,658.675Z" style="fill:rgb(7,14,49);"/>
                <path d="M1211.06,284.955C1195.54,282.827 1153.14,283.839 1124.61,279.395C1095.84,274.914 1055.26,263.394 1038.44,258.07C1032.67,256.244 1028.94,250.52 1023.72,247.452C1012.1,240.614 987.843,225.565 968.698,217.044C949.046,208.297 926.301,199.422 905.813,194.971C886.196,190.709 864.883,189.919 845.769,190.338C827.406,190.739 808.992,193.192 791.132,197.481C770.295,202.485 737.723,211.655 720.747,220.359C707.984,226.903 698.77,238.953 689.278,249.705C671.522,269.816 627.579,319.62 614.214,341.024C607.601,351.615 609.635,369.916 609.086,378.129C608.812,382.223 609.855,386.338 610.921,390.301C612.715,396.971 615.085,409.646 619.85,418.15C624.782,426.951 635.159,442.219 640.509,443.104C645.858,443.989 651.533,428.766 651.948,423.46C652.34,418.432 645.328,414.523 642.995,411.265C641.265,408.848 639.206,406.606 637.95,403.912C636.104,399.951 632.838,393.256 631.917,387.501C630.63,379.457 629.227,366.232 630.228,355.645C631.274,344.584 633.462,331.952 638.192,321.135C643.367,309.3 651.689,295.371 661.279,284.634C671.101,273.638 684.158,263.593 697.124,255.155C711.002,246.124 728.007,237.083 744.55,230.443C762.229,223.348 783.328,216.343 803.194,212.584C823.06,208.826 843.679,206.625 863.746,207.895C883.813,209.164 904.893,214.451 923.596,220.202C941.719,225.776 962.651,236.156 975.965,242.405C985.464,246.863 1000.8,254.756 1003.48,257.694C1006.1,260.564 995.94,259.79 992.061,260.033C979.373,260.827 939.931,260.169 927.354,262.457C922.236,263.389 917.561,270.866 916.599,273.766C915.773,276.255 919.15,278.871 921.581,279.855C926.009,281.647 935.807,284.539 943.17,284.521C953.911,284.494 971.658,280.049 986.031,279.697C1003.84,279.261 1031.38,280.631 1050.04,281.904C1066.1,282.999 1082.13,284.729 1098.01,287.334C1117.31,290.502 1147.48,297.641 1165.88,300.909C1179.98,303.413 1199.77,308.4 1208.42,306.942C1214.17,305.973 1217.33,295.825 1217.77,292.161C1218.16,288.903 1214.31,285.4 1211.06,284.955Z" style="fill:rgb(7,14,49);"/>
            </g>
            <path d="M1150.39,1137.44C1162.17,1124.62 1193.14,1086.26 1211.11,1061.02C1228.23,1036.97 1246.14,1009.99 1258.19,985.999C1269.18,964.143 1276.86,940.656 1283.44,917.096C1291.02,889.98 1298.52,854.871 1303.65,823.302C1308.82,791.432 1312.33,758.477 1314.49,725.871C1316.89,689.541 1325.14,644.456 1318.1,605.322C1311.05,566.188 1283.64,517.695 1272.2,491.068C1265.5,475.487 1254.24,461.83 1249.44,445.564C1243.21,424.402 1239.9,387.95 1234.77,364.097C1230.29,343.329 1230.97,315.534 1218.62,302.446C1206.27,289.357 1180.45,289.125 1160.64,285.565C1130.61,280.17 1069.14,274.008 1038.46,270.074C1017.81,267.426 997.349,262.302 976.532,261.957C949.262,261.505 906.659,263.895 874.842,267.36C844.842,270.627 810.913,275.542 785.626,282.746C763.691,288.994 741.201,299.048 723.119,310.579C705.737,321.663 689.458,338.539 677.133,351.932C666.299,363.705 656.827,376.893 649.164,390.938C640.297,407.192 629.296,428.904 623.926,449.458C617.763,473.051 613.33,504.566 612.183,532.498C610.763,567.084 613.887,623.344 615.407,656.979C616.574,682.803 617.571,708.726 621.305,734.305C626.438,769.473 638.015,832.382 646.206,867.987C652.45,895.125 660.951,923.906 670.453,947.934C679.29,970.281 692.733,993.696 703.218,1012.15C712.345,1028.22 722.274,1043.9 733.362,1058.68C746.175,1075.76 764.109,1097.17 780.098,1114.65C795.705,1131.71 812.516,1149.12 829.298,1163.55C845.425,1177.41 864.444,1191.58 880.792,1201.22C895.372,1209.82 911.356,1217.18 927.389,1221.4C943.422,1225.63 961.459,1226.45 976.991,1226.56C991.599,1226.66 1006.56,1226.13 1020.58,1222.05C1038.05,1216.97 1063.06,1207.92 1081.78,1196.07C1102.32,1183.07 1130.58,1156.31 1143.81,1144.04C1150.58,1137.76 1161.08,1128.72 1161.14,1122.44C1161.2,1116.16 1148.43,1108.98 1144.17,1106.36C1141.74,1104.85 1138.08,1105.26 1135.6,1106.68C1131.75,1108.9 1125.89,1115.3 1121.09,1119.66C1112.18,1127.72 1096.15,1144.47 1082.16,1155.06C1067.63,1166.06 1049.35,1178.24 1033.89,1185.66C1019.87,1192.4 1004.76,1197.32 989.383,1199.62C973.592,1201.99 955.552,1203.16 939.137,1199.84C922.531,1196.47 905.35,1188.03 889.749,1179.44C873.573,1170.53 856.49,1159.27 842.079,1146.37C825.097,1131.17 805.026,1108.44 787.86,1088.26C769.82,1067.05 749.932,1043.56 733.842,1019.14C717.737,994.705 702.36,968.938 691.231,941.638C678.733,910.98 666.62,870.001 658.854,835.196C651.351,801.566 647.93,767.106 644.638,732.807C640.861,693.456 636.813,639.289 636.191,599.092C635.637,563.238 636.366,521.853 640.91,491.622C644.738,466.148 652.688,439.908 663.452,417.704C674.023,395.898 687.847,375 705.497,358.394C723.233,341.706 746.246,326.921 769.873,317.573C795.456,307.451 828.768,301.26 858.995,297.663C903.031,292.422 1003.02,287.467 1034.09,286.129C1038.04,285.959 1041.57,288.741 1045.41,289.636C1057.52,292.454 1086.03,300.06 1106.74,303.035C1127.67,306.041 1159.22,306.557 1170.99,307.673C1173.21,307.884 1175.36,308.722 1177.35,309.735C1181.44,311.825 1191.09,314.818 1195.55,320.214C1200.17,325.79 1202.69,335.245 1205.03,343.192C1208.29,354.236 1212.31,371.926 1215.1,386.474C1218.68,405.151 1223.26,440.212 1226.5,455.254C1228.12,462.727 1231.12,469.898 1234.56,476.727C1239.59,486.737 1250.29,501.939 1256.7,515.312C1263.19,528.844 1269.51,545.62 1273.48,557.922C1276.75,568.07 1279.11,578.556 1280.52,589.125C1282.54,604.167 1284.69,628.44 1285.56,648.176C1286.55,670.834 1287.5,699.46 1286.49,725.076C1285.42,752.406 1283.77,783.403 1279.1,812.159C1273.47,846.788 1267.71,894.862 1252.76,932.852C1237.81,970.841 1210.64,1009.46 1189.41,1040.1C1170.46,1067.44 1137.4,1102.16 1125.39,1116.68C1122.58,1120.08 1117.25,1124.12 1117.34,1127.19C1117.42,1130.26 1122.39,1133.46 1125.91,1135.11C1129.76,1136.9 1136.34,1137.57 1140.42,1137.96C1143.73,1138.28 1148.14,1139.89 1150.39,1137.44Z" style="fill:rgb(7,14,49);"/>
            <path d="M1158.72,1107.43C1155.14,1107.2 1148.86,1103.49 1145.07,1103C1142.03,1102.6 1138.61,1102.88 1135.99,1104.48C1132.91,1106.35 1129.66,1110.95 1126.56,1114.26C1123.06,1118 1117.39,1123.19 1114.97,1126.92C1113.13,1129.76 1110.86,1133.48 1112.07,1136.63C1113.45,1140.23 1118.77,1146.83 1123.26,1148.52C1127.74,1150.21 1134.34,1149.27 1138.98,1146.77C1144.53,1143.78 1151.73,1135.75 1156.56,1130.59C1160.8,1126.06 1166.27,1120.19 1167.93,1115.83C1169.3,1112.24 1168.06,1105.81 1166.53,1104.4C1164.99,1103.01 1161.5,1107.61 1158.72,1107.43Z" style="fill:rgb(7,14,49);"/>
            <g id="Glasses">
                <path d="M787.183,795.223C801.377,792.479 817.998,788.659 830.799,780.125C844.5,770.991 859.737,756.033 869.383,740.422C879.029,724.812 884.854,703.935 888.676,686.461C892.308,669.848 891.816,645.053 892.31,635.574C892.415,633.569 890.023,630.78 891.639,629.588C894.493,627.481 904.06,624.283 909.434,622.938C914.13,621.763 919.757,621.8 923.887,621.518C927.324,621.283 932.111,622.576 934.217,621.243C936.323,619.91 936.997,616.165 936.524,613.52C936.023,610.722 932.538,606.542 931.21,604.45C930.427,603.218 929.985,601.253 928.553,600.969C925.163,600.297 916.745,599.902 910.871,600.419C904.794,600.953 897.037,602.633 892.089,604.175C888.204,605.387 884.439,609.998 881.187,609.672C877.934,609.347 875.811,604.205 872.575,602.221C867.602,599.172 858.951,593.689 851.35,591.379C841.298,588.326 825.475,585.069 812.26,583.897C797.906,582.625 780.856,582.49 765.23,583.745C747.668,585.154 725.171,588.852 706.89,592.355C689.598,595.669 666.773,601.473 655.546,604.762C649.913,606.412 641.304,606.492 639.532,612.088C637.305,619.118 641.234,635.727 642.185,646.944C643.103,657.769 643.222,668.717 645.239,679.392C647.53,691.512 652.842,709.454 655.928,719.665C658.088,726.815 660.573,734.235 663.754,740.661C666.839,746.893 670.742,752.735 675.015,758.221C679.5,763.979 684.456,770.658 690.666,775.208C698.047,780.616 710.135,787.106 719.297,790.669C727.684,793.93 736.658,795.984 745.637,796.586C756.951,797.345 773.578,797.852 787.183,795.223ZM772.168,780.553C783.365,778.74 802.707,774.954 813.968,769.864C823.848,765.399 833.047,758.547 839.736,750.014C848.038,739.42 858.632,720.524 863.785,706.304C868.575,693.088 869.638,676.179 870.656,664.695C871.46,655.629 871.738,644.749 869.893,637.401C868.293,631.029 864.273,625.206 859.586,620.604C854.337,615.45 846.18,609.872 838.399,606.48C830.447,603.012 820.936,600.773 811.869,599.799C800.321,598.559 783.338,598.121 769.114,599.036C754.767,599.958 738.702,602.599 725.786,605.334C714.167,607.796 701.132,611.379 691.621,615.45C683.344,618.994 674.124,625.63 668.716,629.766C664.96,632.638 661.209,637.623 659.173,640.264C657.957,641.841 656.431,643.617 656.501,645.608C656.691,651.08 658.509,664.022 660.318,673.093C662.449,683.782 666.044,699.306 669.289,709.74C672.06,718.653 675.492,727.841 679.787,735.698C683.962,743.337 688.901,750.729 695.056,756.885C701.387,763.215 709.219,769.737 717.77,773.682C726.391,777.658 737.716,779.598 746.782,780.744C755.177,781.804 763.814,781.905 772.168,780.553Z" style="fill:rgb(57,60,93);"/>
                <g transform="matrix(-0.989994,0.141108,0.141108,0.989994,1745.21,-124.293)">
                    <path d="M787.183,795.223C801.377,792.479 817.998,788.659 830.799,780.125C844.5,770.991 859.737,756.033 869.383,740.422C879.029,724.812 884.854,703.935 888.676,686.461C892.308,669.848 891.816,645.053 892.31,635.574C892.415,633.569 890.058,630.826 891.639,629.588C894.24,627.55 902.36,624.706 907.914,623.352C913.468,621.998 920.581,621.814 924.965,621.463C928.04,621.216 932.291,622.567 934.217,621.243C936.143,619.919 936.997,616.165 936.524,613.52C936.023,610.722 932.538,606.542 931.21,604.45C930.427,603.218 929.964,601.343 928.553,600.969C926.207,600.346 920.917,600.302 917.131,600.711C911.659,601.303 901.708,603.028 895.717,604.522C890.731,605.765 885.044,610.056 881.187,609.672C877.409,609.297 875.811,604.205 872.575,602.221C867.602,599.172 858.951,593.689 851.35,591.379C841.298,588.326 825.475,585.069 812.26,583.897C797.906,582.625 780.856,582.49 765.23,583.745C747.668,585.154 725.171,588.852 706.89,592.355C689.598,595.669 666.773,601.473 655.546,604.762C649.913,606.412 641.304,606.492 639.532,612.088C637.305,619.118 641.234,635.727 642.185,646.944C643.103,657.769 643.222,668.717 645.239,679.392C647.53,691.512 652.842,709.454 655.928,719.665C658.088,726.815 660.573,734.235 663.754,740.661C666.839,746.893 670.742,752.735 675.015,758.221C679.5,763.979 684.456,770.658 690.666,775.208C698.047,780.616 710.135,787.106 719.297,790.669C727.684,793.93 736.658,795.984 745.637,796.586C756.951,797.345 773.578,797.852 787.183,795.223ZM772.168,780.553C783.365,778.74 802.707,774.954 813.968,769.864C823.848,765.399 833.047,758.547 839.736,750.014C848.038,739.42 858.632,720.524 863.785,706.304C868.575,693.088 869.638,676.179 870.656,664.695C871.46,655.629 871.738,644.749 869.893,637.401C868.293,631.029 864.273,625.206 859.586,620.604C854.337,615.45 846.18,609.872 838.399,606.48C830.447,603.012 820.936,600.773 811.869,599.799C800.321,598.559 783.338,598.121 769.114,599.036C754.767,599.958 738.702,602.599 725.786,605.334C714.167,607.796 701.132,611.379 691.621,615.45C683.344,618.994 674.124,625.63 668.716,629.766C664.96,632.638 661.209,637.623 659.173,640.264C657.957,641.841 656.431,643.617 656.501,645.608C656.691,651.08 658.509,664.022 660.318,673.093C662.449,683.782 666.044,699.306 669.289,709.74C672.06,718.653 675.492,727.841 679.787,735.698C683.962,743.337 688.901,750.729 695.056,756.885C701.387,763.215 709.219,769.737 717.77,773.682C726.391,777.658 737.716,779.598 746.782,780.744C755.177,781.804 763.814,781.905 772.168,780.553Z" style="fill:rgb(57,60,93);"/>
                </g>
                <path d="M1199.43,605.477C1201.99,600.318 1207.84,596.429 1213.52,595.481C1219.68,594.451 1229.03,597.014 1236.42,599.298C1249.94,603.473 1280.2,614.647 1294.64,620.532C1304.42,624.52 1317.86,634.37 1323.03,634.609C1327.33,634.807 1325.89,625.9 1325.65,621.964C1325.42,618.071 1324.73,613.309 1321.6,610.989C1315.47,606.456 1300.07,599.612 1288.91,594.765C1272.53,587.647 1238.25,572.974 1223.3,568.282C1215.62,565.871 1207.24,566.114 1199.2,566.612C1190.22,567.168 1172.28,567.367 1169.38,571.622C1166.48,575.877 1178.77,587.257 1181.79,592.14C1183.62,595.106 1186.2,597.673 1187.46,600.92C1189.91,607.203 1194.49,629.078 1196.48,629.837C1198.48,630.597 1196.59,611.203 1199.43,605.477Z" style="fill:rgb(57,60,93);"/>
                <path d="M637.31,610.232C633.932,610.813 630.488,611.35 627.215,612.414C623.942,613.477 619.326,614.386 617.671,616.613C616.017,618.839 616.812,622.911 617.29,625.774C617.764,628.618 618.627,631.629 620.534,633.791C622.443,635.954 625.852,637.386 628.742,638.754C631.7,640.153 635.645,640.281 638.285,642.189C640.926,644.098 642.484,650.397 644.584,650.206C646.684,650.015 648.983,644.226 650.883,641.044C653.332,636.94 659.847,630.936 659.281,625.584C658.715,620.231 651.146,611.486 647.484,608.928C644.682,606.969 640.68,609.653 637.31,610.232Z" style="fill:rgb(57,60,93);"/>
            </g>
        </g>
    </g>
</svg>
